<svg xmlns="http://www.w3.org/2000/svg" xmlns:xlink="http://www.w3.org/1999/xlink" width="500" zoomAndPan="magnify" viewBox="0 0 375 374.999991" height="500" preserveAspectRatio="xMidYMid meet" version="1.2"><g id="1ede6823d3"><path style=" stroke:none;fill-rule:nonzero;fill:#000000;fill-opacity:1;" d="M 103.179688 25.542969 L 104.070312 25.542969 C 121.011719 25.566406 137.414062 29.695312 152.34375 37.71875 L 153.085938 38.117188 C 158.707031 41.160156 163.8125 44.753906 168.824219 48.707031 L 169.449219 49.195312 C 174.886719 53.5 180.007812 58.5625 184.203125 64.085938 C 184.757812 64.78125 185.316406 65.476562 185.875 66.167969 C 186.296875 66.695312 186.714844 67.222656 187.132812 67.75 C 188.050781 67.375 188.59375 67.023438 189.265625 66.285156 L 189.949219 65.390625 C 192.699219 61.828125 195.542969 58.472656 198.738281 55.296875 L 199.273438 54.765625 C 201.839844 52.210938 204.453125 49.816406 207.390625 47.695312 C 208.054688 47.207031 208.695312 46.703125 209.339844 46.195312 C 214.988281 41.757812 221.273438 38.171875 227.78125 35.15625 L 228.699219 34.726562 C 245.074219 27.089844 262.980469 24.421875 280.929688 25.910156 C 298.574219 27.617188 315.847656 33.640625 330.320312 43.945312 C 335.113281 47.390625 339.785156 51.023438 343.871094 55.296875 C 344.75 56.1875 345.640625 57.0625 346.542969 57.929688 C 348.894531 60.199219 350.902344 62.632812 352.871094 65.234375 C 353.386719 65.910156 353.914062 66.574219 354.445312 67.238281 C 365.101562 80.761719 371.402344 97.605469 374 114.507812 C 376.410156 131.460938 374.050781 148.132812 367.722656 163.992188 C 367.109375 165.488281 366.484375 166.976562 365.84375 168.457031 L 365.394531 169.507812 C 363.160156 174.695312 360.582031 179.660156 357.789062 184.570312 L 357.308594 185.414062 C 351.386719 195.757812 344.621094 205.582031 337.28125 214.964844 L 336.300781 216.230469 C 334.015625 219.171875 331.648438 222.027344 329.222656 224.851562 L 328.160156 226.097656 C 321.09375 234.367188 321.09375 234.367188 317.496094 238.332031 C 316.824219 239.082031 316.164062 239.835938 315.515625 240.601562 C 314.25 242.054688 312.886719 243.398438 311.507812 244.742188 C 310.769531 245.503906 310.054688 246.285156 309.367188 247.089844 C 307.558594 249.179688 305.570312 251.089844 303.597656 253.027344 C 302.25 254.363281 300.925781 255.699219 299.691406 257.144531 C 298.492188 258.539062 297.191406 259.78125 295.828125 261.015625 C 294.050781 262.652344 292.308594 264.308594 290.609375 266.03125 C 289.261719 267.394531 287.882812 268.6875 286.421875 269.933594 C 285.390625 270.859375 284.421875 271.839844 283.445312 272.828125 C 282.042969 274.246094 280.621094 275.617188 279.097656 276.914062 C 278.085938 277.789062 277.105469 278.695312 276.121094 279.601562 C 274.675781 280.9375 273.210938 282.25 271.726562 283.542969 C 270.867188 284.296875 270.011719 285.058594 269.164062 285.828125 C 265.285156 289.324219 261.34375 292.769531 257.285156 296.058594 C 255.660156 297.375 254.078125 298.734375 252.503906 300.109375 C 250.277344 302.042969 248.019531 303.9375 245.726562 305.785156 L 244.355469 306.90625 C 241.808594 308.988281 239.242188 311.050781 236.648438 313.078125 C 235.339844 314.101562 234.039062 315.136719 232.746094 316.179688 C 229.78125 318.5625 226.769531 320.878906 223.738281 323.183594 C 223.097656 323.675781 222.453125 324.167969 221.816406 324.664062 C 217.023438 328.382812 212.113281 331.945312 207.191406 335.488281 C 205.1875 336.933594 203.195312 338.394531 201.210938 339.867188 C 198.46875 341.894531 195.703125 343.882812 192.90625 345.832031 C 192.054688 346.425781 191.214844 347.039062 190.390625 347.671875 L 189.421875 348.402344 L 188.628906 349.03125 L 187.867188 349.363281 C 186.535156 348.9375 185.460938 348.300781 184.3125 347.515625 L 183.328125 346.839844 L 182.28125 346.113281 L 181.195312 345.367188 C 176.644531 342.234375 172.144531 339.035156 167.675781 335.789062 C 165.703125 334.359375 163.699219 332.988281 161.683594 331.628906 C 159.070312 329.859375 156.566406 327.992188 154.09375 326.039062 C 152.113281 324.476562 150.101562 322.972656 148.0625 321.488281 C 145.464844 319.589844 142.933594 317.625 140.433594 315.601562 C 139.222656 314.621094 137.996094 313.667969 136.757812 312.722656 C 131.828125 308.949219 126.984375 305.078125 122.253906 301.058594 C 121.003906 299.996094 119.742188 298.949219 118.46875 297.914062 C 116.78125 296.539062 115.121094 295.140625 113.464844 293.730469 C 112.21875 292.675781 110.957031 291.632812 109.679688 290.613281 C 107.941406 289.199219 106.308594 287.699219 104.675781 286.171875 C 103.476562 285.054688 102.238281 283.984375 100.960938 282.964844 C 98.925781 281.335938 97.039062 279.5625 95.152344 277.769531 C 93.953125 276.625 92.742188 275.507812 91.488281 274.421875 C 90.367188 273.445312 89.289062 272.425781 88.257812 271.363281 C 87.195312 270.289062 86.132812 269.25 84.984375 268.273438 C 83.757812 267.222656 82.613281 266.101562 81.480469 264.953125 C 80.363281 263.820312 79.238281 262.710938 78.027344 261.679688 C 76.734375 260.574219 75.523438 259.402344 74.316406 258.203125 L 73.78125 257.671875 C 72.8125 256.695312 71.882812 255.6875 70.988281 254.640625 C 69.222656 252.601562 67.285156 250.734375 65.367188 248.839844 C 61.117188 244.644531 61.117188 244.644531 59.171875 242.371094 C 58.179688 241.21875 57.121094 240.125 56.074219 239.019531 C 54.277344 237.109375 52.570312 235.160156 50.929688 233.109375 C 50.15625 232.160156 49.347656 231.253906 48.523438 230.347656 C 45.546875 227.070312 42.839844 223.570312 40.117188 220.082031 C 39.515625 219.316406 38.914062 218.550781 38.308594 217.785156 C 35.421875 214.121094 32.65625 210.398438 30.03125 206.542969 L 29.628906 205.957031 C 25.523438 199.929688 21.515625 193.867188 17.945312 187.5 L 17.324219 186.402344 C 10.292969 173.894531 4.941406 160.882812 1.832031 146.851562 L 1.628906 145.96875 C -0.34375 137.175781 -0.167969 127.960938 0.367188 119.019531 L 0.429688 117.929688 C 1.011719 108.601562 2.765625 99.386719 5.492188 90.453125 L 5.816406 89.382812 C 9.082031 78.832031 14.253906 68.980469 21.242188 60.425781 L 21.695312 59.855469 C 25.964844 54.539062 30.773438 49.828125 36.253906 45.777344 L 37.238281 45.019531 C 51.511719 34.246094 68.957031 28.777344 86.511719 26.472656 C 88.066406 26.28125 89.625 26.125 91.1875 26 L 92.367188 25.90625 C 95.972656 25.640625 99.5625 25.546875 103.179688 25.542969 "/></g></svg>