<svg xmlns="http://www.w3.org/2000/svg" xmlns:xlink="http://www.w3.org/1999/xlink" width="500" zoomAndPan="magnify" viewBox="0 0 375 374.999991" height="500" preserveAspectRatio="xMidYMid meet" version="1.2"><g id="a180bef941"><path style=" stroke:none;fill-rule:nonzero;fill:#000000;fill-opacity:1;" d="M 155.972656 -0.296875 L 158.269531 -0.308594 C 160.746094 -0.324219 163.226562 -0.320312 165.703125 -0.316406 C 167.445312 -0.320312 169.183594 -0.324219 170.921875 -0.328125 C 174.558594 -0.335938 178.195312 -0.335938 181.828125 -0.328125 C 186.46875 -0.320312 191.105469 -0.332031 195.746094 -0.355469 C 199.335938 -0.367188 202.921875 -0.367188 206.511719 -0.363281 C 208.222656 -0.363281 209.933594 -0.367188 211.640625 -0.378906 C 229.429688 -0.457031 229.429688 -0.457031 236.570312 2.929688 C 240.804688 5.492188 244.078125 8.511719 246.59375 12.804688 C 250.753906 20.761719 250.011719 29.511719 249.894531 38.222656 C 249.882812 39.632812 249.871094 41.042969 249.863281 42.453125 C 249.839844 45.882812 249.800781 49.308594 249.753906 52.734375 L 251.609375 52.714844 C 257.417969 52.65625 263.222656 52.613281 269.03125 52.582031 C 272.015625 52.566406 275 52.546875 277.984375 52.511719 C 280.871094 52.480469 283.757812 52.464844 286.644531 52.457031 C 287.738281 52.449219 288.832031 52.441406 289.925781 52.425781 C 296.9375 52.328125 303.285156 52.878906 309.8125 55.664062 C 314.054688 58.199219 317.316406 61.257812 319.835938 65.53125 C 323.433594 72.445312 323.363281 79.820312 323.324219 87.414062 C 323.320312 89.253906 323.339844 91.09375 323.363281 92.933594 C 323.394531 99.9375 322.945312 106.273438 320.066406 112.792969 C 317.417969 117.199219 314.296875 120.25 309.914062 122.933594 C 306.617188 124.714844 303.996094 125.304688 300.292969 125.242188 L 300.242188 126.554688 C 299.785156 138.316406 299.179688 150.0625 298.492188 161.8125 L 298.175781 167.292969 C 297.890625 172.195312 297.601562 177.101562 297.316406 182.003906 L 296.777344 191.21875 C 296.277344 199.753906 295.78125 208.292969 295.277344 216.828125 L 295.183594 218.472656 L 295.085938 220.117188 L 294.792969 225.074219 C 294.273438 233.949219 293.757812 242.828125 293.242188 251.703125 C 292.710938 260.855469 292.175781 270.007812 291.636719 279.164062 C 291.335938 284.285156 291.039062 289.40625 290.742188 294.53125 C 290.464844 299.34375 290.179688 304.152344 289.894531 308.960938 C 289.792969 310.722656 289.6875 312.480469 289.589844 314.242188 C 288.058594 340.992188 288.058594 340.992188 281.117188 353.199219 C 276.097656 360.824219 269.5 366.164062 261.519531 370.421875 C 254.65625 373.703125 247.328125 375.082031 239.75 375.101562 L 236.863281 375.117188 L 233.734375 375.117188 L 230.40625 375.128906 C 227.40625 375.136719 224.402344 375.144531 221.398438 375.144531 C 219.519531 375.148438 217.636719 375.152344 215.757812 375.15625 C 209.859375 375.164062 203.960938 375.171875 198.0625 375.175781 C 191.277344 375.179688 184.496094 375.191406 177.714844 375.210938 C 172.453125 375.226562 167.195312 375.238281 161.933594 375.238281 C 158.800781 375.238281 155.667969 375.242188 152.535156 375.253906 C 149.582031 375.265625 146.628906 375.269531 143.675781 375.261719 C 142.601562 375.261719 141.527344 375.265625 140.453125 375.273438 C 130.179688 375.335938 120.453125 374.191406 111.328125 369.140625 C 103.746094 364.722656 97.484375 359.164062 93.015625 351.5625 C 88.828125 343.539062 87.011719 336.453125 86.40625 327.496094 L 86.226562 324.964844 C 85.585938 315.953125 85.046875 306.933594 84.519531 297.914062 L 84.191406 292.410156 C 83.933594 288 83.671875 283.589844 83.414062 279.183594 L 82.785156 268.433594 L 82.691406 266.875 L 82.507812 263.738281 C 81.933594 254.007812 81.363281 244.269531 80.792969 234.53125 C 80.300781 226.191406 79.8125 217.847656 79.320312 209.507812 C 78.6875 198.742188 78.054688 187.976562 77.421875 177.214844 L 77.328125 175.667969 L 76.695312 164.917969 C 76.414062 160.105469 76.128906 155.289062 75.847656 150.472656 C 75.746094 148.707031 75.640625 146.941406 75.539062 145.175781 C 75.394531 142.769531 75.253906 140.359375 75.113281 137.949219 L 74.988281 135.832031 C 74.785156 132.296875 74.664062 128.785156 74.707031 125.242188 L 72.144531 125.0625 C 67.667969 124.492188 64.351562 122.535156 60.699219 119.980469 C 57.523438 117.132812 55.152344 113.640625 53.527344 109.703125 C 51.671875 103.605469 51.644531 97.613281 51.675781 91.296875 C 51.679688 89.453125 51.660156 87.617188 51.636719 85.777344 C 51.605469 78.773438 52.054688 72.4375 54.929688 65.917969 C 57.476562 61.683594 60.519531 58.421875 64.792969 55.894531 C 71.675781 52.328125 78.988281 52.4375 86.546875 52.519531 C 87.671875 52.523438 88.792969 52.527344 89.914062 52.527344 C 92.839844 52.539062 95.761719 52.558594 98.6875 52.582031 C 101.683594 52.605469 104.675781 52.617188 107.671875 52.628906 C 113.53125 52.652344 119.386719 52.6875 125.242188 52.734375 L 125.199219 50.128906 C 125.144531 46.894531 125.109375 43.660156 125.082031 40.425781 C 125.066406 39.035156 125.046875 37.644531 125.023438 36.253906 C 124.746094 20.6875 124.746094 20.6875 128.171875 13.183594 C 130.726562 8.949219 133.757812 5.707031 138.019531 3.160156 C 143.695312 0.242188 149.691406 -0.324219 155.972656 -0.296875 M 148.679688 21.972656 L 147.214844 23.4375 L 147.214844 52.734375 L 227.78125 52.734375 L 227.78125 23.4375 L 226.316406 21.972656 C 224.878906 21.75 224.878906 21.75 223.203125 21.785156 L 221.226562 21.773438 L 219.046875 21.78125 L 216.761719 21.777344 C 214.253906 21.769531 211.75 21.773438 209.242188 21.777344 L 204.039062 21.773438 C 200.398438 21.773438 196.757812 21.773438 193.117188 21.78125 C 188.441406 21.789062 183.769531 21.785156 179.09375 21.777344 C 175.511719 21.773438 171.925781 21.773438 168.34375 21.777344 C 166.617188 21.777344 164.894531 21.777344 163.167969 21.773438 C 160.761719 21.769531 158.359375 21.773438 155.953125 21.78125 L 153.773438 21.773438 L 151.796875 21.785156 L 150.070312 21.789062 Z M 75.4375 74.707031 L 73.972656 76.171875 C 73.828125 78.148438 73.769531 80.050781 73.78125 82.03125 L 73.777344 83.789062 C 73.773438 85.015625 73.777344 86.242188 73.785156 87.46875 C 73.792969 89.347656 73.785156 91.226562 73.773438 93.109375 C 73.773438 94.300781 73.777344 95.488281 73.78125 96.679688 L 73.769531 98.390625 C 73.785156 99.773438 73.871094 101.160156 73.976562 102.539062 L 75.441406 104.003906 C 77.125 104.226562 77.125 104.226562 79.117188 104.1875 L 81.488281 104.199219 L 84.113281 104.191406 L 86.886719 104.195312 C 89.4375 104.203125 91.988281 104.199219 94.535156 104.195312 C 97.28125 104.191406 100.027344 104.195312 102.773438 104.199219 C 108.15625 104.207031 113.539062 104.207031 118.921875 104.203125 C 123.292969 104.199219 127.667969 104.199219 132.039062 104.199219 L 133.921875 104.199219 L 137.710938 104.203125 C 149.558594 104.207031 161.40625 104.203125 173.25 104.195312 C 183.425781 104.1875 193.601562 104.1875 203.777344 104.195312 C 217.460938 104.203125 231.148438 104.207031 244.835938 104.199219 C 249.203125 104.199219 253.574219 104.199219 257.945312 104.203125 C 263.265625 104.207031 268.589844 104.207031 273.910156 104.199219 C 276.628906 104.195312 279.347656 104.195312 282.0625 104.199219 C 285.003906 104.203125 287.945312 104.195312 290.886719 104.191406 L 293.511719 104.199219 L 295.882812 104.1875 L 297.941406 104.1875 L 299.558594 104.003906 L 301.023438 102.539062 C 301.171875 100.5625 301.230469 98.660156 301.21875 96.679688 L 301.222656 94.921875 C 301.226562 93.695312 301.222656 92.46875 301.214844 91.242188 C 301.207031 89.363281 301.214844 87.484375 301.226562 85.601562 C 301.226562 84.410156 301.222656 83.222656 301.21875 82.03125 L 301.230469 80.320312 C 301.214844 78.9375 301.128906 77.550781 301.023438 76.171875 L 299.558594 74.707031 C 297.875 74.484375 297.875 74.484375 295.882812 74.523438 L 293.511719 74.511719 L 290.886719 74.519531 L 288.113281 74.511719 C 285.5625 74.507812 283.011719 74.511719 280.464844 74.515625 C 277.71875 74.519531 274.972656 74.511719 272.226562 74.511719 C 266.84375 74.503906 261.460938 74.503906 256.078125 74.507812 C 251.707031 74.511719 247.332031 74.511719 242.960938 74.511719 L 241.078125 74.511719 L 237.289062 74.507812 C 225.441406 74.503906 213.59375 74.507812 201.75 74.515625 C 191.574219 74.523438 181.398438 74.523438 171.222656 74.515625 C 158.164062 74.503906 145.101562 74.503906 132.042969 74.511719 L 130.167969 74.511719 C 125.796875 74.511719 121.425781 74.511719 117.054688 74.507812 C 111.734375 74.503906 106.410156 74.503906 101.089844 74.511719 C 98.371094 74.515625 95.652344 74.515625 92.9375 74.511719 C 89.996094 74.507812 87.054688 74.511719 84.113281 74.519531 L 81.488281 74.511719 L 79.117188 74.523438 L 77.058594 74.523438 Z M 96.679688 125.976562 C 96.679688 132.476562 96.695312 138.847656 97.09375 145.316406 L 97.226562 147.636719 C 97.375 150.164062 97.523438 152.6875 97.675781 155.214844 L 97.996094 160.699219 C 98.257812 165.121094 98.519531 169.546875 98.78125 173.96875 C 99.089844 179.132812 99.394531 184.292969 99.699219 189.457031 C 100.242188 198.671875 100.785156 207.886719 101.332031 217.105469 C 101.960938 227.691406 102.589844 238.28125 103.210938 248.867188 L 103.308594 250.523438 L 103.40625 252.175781 C 104.089844 263.785156 104.777344 275.402344 105.464844 287.019531 C 105.78125 292.371094 106.097656 297.71875 106.414062 303.066406 L 106.730469 308.378906 C 106.871094 310.804688 107.015625 313.230469 107.160156 315.65625 L 107.285156 317.757812 C 107.496094 321.332031 107.742188 324.902344 108.019531 328.46875 L 108.1875 330.628906 C 108.695312 335.183594 110.660156 339.296875 113.261719 343.035156 C 116.542969 346.972656 120.238281 350.167969 125.066406 352.011719 C 130.019531 353.59375 135.152344 353.339844 140.296875 353.324219 L 143.726562 353.335938 C 146.816406 353.351562 149.90625 353.351562 152.996094 353.347656 C 155.582031 353.34375 158.167969 353.347656 160.753906 353.351562 C 166.859375 353.363281 172.964844 353.363281 179.070312 353.355469 C 185.351562 353.347656 191.636719 353.355469 197.917969 353.375 C 203.328125 353.390625 208.738281 353.398438 214.144531 353.390625 C 217.371094 353.390625 220.59375 353.394531 223.816406 353.40625 C 226.851562 353.414062 229.882812 353.414062 232.917969 353.398438 C 234.023438 353.394531 235.132812 353.398438 236.242188 353.40625 C 243.675781 353.453125 249.214844 352.40625 255.753906 348.816406 C 259.421875 345.878906 262.492188 342.550781 264.632812 338.332031 C 268.476562 328.3125 267.898438 316.082031 268.507812 305.511719 L 268.832031 300.042969 C 269.097656 295.625 269.355469 291.210938 269.613281 286.792969 C 269.910156 281.636719 270.214844 276.484375 270.519531 271.328125 C 271.0625 262.121094 271.601562 252.914062 272.136719 243.710938 C 272.65625 234.800781 273.179688 225.890625 273.707031 216.984375 C 274.34375 206.214844 274.976562 195.445312 275.605469 184.675781 L 275.699219 183.125 L 276.332031 172.378906 C 276.617188 167.542969 276.898438 162.710938 277.179688 157.878906 C 277.28125 156.109375 277.382812 154.34375 277.488281 152.574219 C 277.632812 150.152344 277.773438 147.726562 277.914062 145.300781 L 278.039062 143.21875 C 278.363281 137.445312 278.320312 131.792969 278.320312 125.976562 Z M 96.679688 125.976562 "/><path style=" stroke:none;fill-rule:nonzero;fill:#000000;fill-opacity:1;" d="M 191.894531 148.679688 C 193.917969 149.890625 195.574219 151.210938 197.019531 153.074219 C 198.609375 156.839844 198.695312 160.183594 198.675781 164.191406 C 198.679688 164.863281 198.683594 165.53125 198.683594 166.222656 C 198.691406 168.464844 198.691406 170.707031 198.6875 172.949219 L 198.699219 177.773438 C 198.710938 182.140625 198.710938 186.507812 198.707031 190.875 C 198.707031 194.523438 198.710938 198.167969 198.714844 201.8125 C 198.722656 210.90625 198.722656 220 198.71875 229.089844 C 198.710938 236.980469 198.722656 244.875 198.734375 252.765625 C 198.75 260.875 198.753906 268.980469 198.753906 277.089844 C 198.75 281.640625 198.753906 286.191406 198.761719 290.742188 C 198.773438 295.019531 198.773438 299.296875 198.761719 303.578125 C 198.757812 305.148438 198.761719 306.714844 198.769531 308.285156 C 198.777344 310.429688 198.769531 312.574219 198.761719 314.71875 L 198.777344 316.597656 C 198.742188 320.5 198.125 323.199219 196.289062 326.660156 C 194.488281 328.589844 193.023438 329.949219 190.488281 330.785156 C 187.765625 331.28125 186.03125 331.054688 183.335938 330.277344 C 180.445312 328.585938 179.148438 327.203125 177.246094 324.460938 C 176.25 321.359375 176.40625 318.210938 176.410156 314.988281 L 176.402344 312.960938 C 176.398438 310.714844 176.394531 308.46875 176.394531 306.222656 L 176.382812 301.394531 C 176.375 297.023438 176.371094 292.648438 176.367188 288.277344 C 176.363281 285.542969 176.363281 282.8125 176.359375 280.082031 C 176.34375 270.0625 176.339844 260.039062 176.335938 250.019531 C 176.332031 242.121094 176.324219 234.21875 176.304688 226.316406 C 176.285156 218.203125 176.277344 210.085938 176.277344 201.972656 C 176.277344 197.417969 176.269531 192.863281 176.257812 188.308594 C 176.246094 184.023438 176.246094 179.738281 176.25 175.453125 C 176.253906 173.882812 176.25 172.308594 176.242188 170.734375 C 176.230469 168.589844 176.238281 166.441406 176.246094 164.296875 L 176.226562 162.414062 C 176.257812 158.511719 176.910156 155.820312 178.710938 152.34375 C 180.304688 150.445312 182.21875 149.09375 184.480469 148.039062 C 187.070312 147.886719 189.414062 147.933594 191.894531 148.683594 "/><path style=" stroke:none;fill-rule:nonzero;fill:#020202;fill-opacity:1;" d="M 241.699219 148.679688 C 243.714844 149.460938 243.714844 149.460938 245.359375 150.878906 C 246.855469 153.148438 248.089844 155.511719 248.53125 158.207031 C 248.59375 159.734375 248.566406 161.226562 248.496094 162.75 L 248.460938 164.46875 C 248.429688 165.675781 248.394531 166.882812 248.355469 168.089844 C 248.292969 169.886719 248.246094 171.6875 248.214844 173.484375 C 248.132812 177.335938 248.023438 181.1875 247.910156 185.042969 L 247.789062 189.433594 C 247.675781 193.367188 247.566406 197.300781 247.453125 201.238281 L 247.238281 208.625 C 247.019531 216.34375 246.796875 224.0625 246.570312 231.78125 C 246.3125 240.667969 246.058594 249.554688 245.808594 258.441406 C 245.617188 265.335938 245.417969 272.230469 245.214844 279.125 C 245.09375 283.230469 244.976562 287.339844 244.863281 291.449219 C 244.757812 295.304688 244.648438 299.160156 244.53125 303.015625 C 244.488281 304.429688 244.449219 305.839844 244.410156 307.253906 C 244.359375 309.183594 244.300781 311.117188 244.238281 313.046875 L 244.199219 314.730469 C 244.0625 318.726562 243.738281 322.957031 241.683594 326.480469 C 240.238281 328.390625 238.835938 329.554688 236.710938 330.644531 C 233.785156 331.160156 231.390625 331.023438 228.515625 330.320312 C 226.5 329.542969 226.5 329.542969 224.851562 328.125 C 223.328125 325.832031 222.113281 323.464844 221.683594 320.726562 C 221.621094 319.105469 221.648438 317.511719 221.71875 315.886719 L 221.753906 314.0625 C 221.785156 312.792969 221.820312 311.523438 221.859375 310.257812 C 221.921875 308.414062 221.964844 306.574219 222 304.730469 C 222.082031 300.890625 222.191406 297.050781 222.304688 293.214844 L 222.425781 288.839844 C 222.539062 284.929688 222.648438 281.019531 222.761719 277.109375 L 222.976562 269.761719 C 223.195312 262.085938 223.417969 254.40625 223.644531 246.730469 C 223.902344 237.894531 224.15625 229.058594 224.40625 220.222656 C 224.597656 213.367188 224.796875 206.507812 225 199.652344 C 225.117188 195.570312 225.234375 191.484375 225.351562 187.398438 C 225.457031 183.5625 225.566406 179.730469 225.683594 175.894531 C 225.726562 174.492188 225.765625 173.085938 225.804688 171.683594 C 225.855469 169.761719 225.914062 167.84375 225.976562 165.921875 L 226.015625 164.25 C 226.152344 160.261719 226.480469 156.039062 228.53125 152.523438 C 229.976562 150.613281 231.378906 149.449219 233.503906 148.359375 C 236.429688 147.84375 238.824219 147.980469 241.699219 148.683594 M 140.542969 148.183594 C 143.183594 149.035156 144.566406 150.332031 146.484375 152.34375 C 148.046875 154.652344 148.296875 156.933594 148.679688 159.667969 C 148.796875 161.710938 148.882812 163.738281 148.9375 165.78125 L 148.992188 167.613281 C 149.054688 169.632812 149.109375 171.652344 149.167969 173.671875 C 149.210938 175.125 149.253906 176.574219 149.296875 178.027344 C 149.414062 181.96875 149.53125 185.910156 149.644531 189.851562 C 149.761719 193.984375 149.882812 198.121094 150.007812 202.253906 C 150.210938 209.207031 150.414062 216.160156 150.613281 223.113281 C 150.847656 231.121094 151.082031 239.132812 151.316406 247.140625 C 151.546875 254.871094 151.773438 262.597656 151.996094 270.324219 L 152.285156 280.152344 C 152.398438 284.027344 152.511719 287.898438 152.621094 291.773438 L 152.746094 296.007812 C 152.859375 299.769531 152.953125 303.535156 153.035156 307.296875 C 153.078125 309.113281 153.140625 310.929688 153.203125 312.746094 C 153.230469 313.914062 153.257812 315.085938 153.285156 316.253906 L 153.355469 317.835938 C 153.40625 321.371094 152.578125 323.820312 150.910156 326.933594 C 150.144531 328.125 150.144531 328.125 148.808594 329.363281 C 146.105469 330.628906 143.910156 331.261719 140.898438 331.101562 C 138.585938 330.707031 137.023438 330.074219 135.179688 328.628906 C 132.550781 325.871094 132.550781 325.871094 131.835938 323.730469 C 131.136719 320.230469 130.945312 316.78125 130.847656 313.222656 L 130.792969 311.390625 C 130.730469 309.371094 130.675781 307.351562 130.617188 305.332031 C 130.574219 303.878906 130.53125 302.425781 130.488281 300.976562 C 130.371094 297.035156 130.253906 293.09375 130.140625 289.152344 C 130.023438 285.019531 129.902344 280.882812 129.777344 276.75 C 129.574219 269.796875 129.371094 262.84375 129.171875 255.890625 C 128.9375 247.882812 128.703125 239.871094 128.46875 231.859375 C 128.238281 224.132812 128.011719 216.40625 127.789062 208.679688 L 127.5 198.851562 C 127.386719 194.976562 127.273438 191.105469 127.164062 187.230469 L 127.039062 182.996094 C 126.925781 179.234375 126.832031 175.46875 126.75 171.707031 C 126.707031 169.890625 126.644531 168.074219 126.582031 166.261719 C 126.554688 165.089844 126.527344 163.917969 126.5 162.75 L 126.429688 161.167969 C 126.378906 157.632812 127.207031 155.183594 128.875 152.070312 C 129.636719 150.878906 129.636719 150.878906 130.976562 149.640625 C 134.277344 148.097656 136.914062 147.570312 140.542969 148.183594 "/></g></svg>