<svg width="477" height="232" viewBox="0 0 477 232" fill="none" xmlns="http://www.w3.org/2000/svg">
<mask id="mask0_19_134" style="mask-type:luminance" maskUnits="userSpaceOnUse" x="0" y="0" width="477" height="232">
<path d="M0.817749 0.349121H476.818V231.349H0.817749V0.349121Z" fill="white"/>
</mask>
<g mask="url(#mask0_19_134)">
<path d="M235.912 0.348956C236.995 0.291664 238.083 0.302081 239.177 0.302081C239.719 0.302081 240.26 0.296873 240.802 0.291665C242.776 0.286457 244.573 0.406249 246.49 0.880206C246.943 0.973957 247.396 1.06771 247.849 1.16146C252.625 2.19791 257.01 3.54167 261.297 5.90104L261.797 6.17187C268.479 9.83333 274 15.4323 277.974 21.8906C279.74 24.8333 281.807 28.3385 282.188 31.8021L282.662 31.8281C284.479 31.9635 286.099 32.375 287.823 32.9583L288.656 33.2396C295.609 35.6719 301.953 40.026 306.906 45.4688C307.5 46.1875 308.073 46.9167 308.63 47.6615L308.953 48.0781C313.792 54.4688 316.76 61.7083 317.781 69.6667C318.427 76.0104 317.818 82.3333 315.771 88.3646L315.573 88.9688C313.307 95.8229 309.469 101.271 304.401 106.333C304.25 106.495 304.104 106.656 303.948 106.823C301.313 109.63 297.99 111.677 294.615 113.469L293.755 113.948C291.495 115.151 289.162 115.974 286.729 116.755L286.057 116.974C285.359 117.172 285.359 117.172 284.589 117.297C283.792 117.438 283.167 117.589 282.453 117.964C281.802 118.885 281.521 119.865 281.214 120.938C281.021 121.516 280.828 122.094 280.63 122.672L280.349 123.526C278.406 129.021 274.13 134.318 269.833 138.167C269.115 138.76 268.385 139.339 267.646 139.901L266.912 140.484C261.583 144.641 255.573 147.203 249.016 148.688L248.438 148.818C241.521 150.313 233.703 149.76 226.979 147.693C224.865 147.005 222.849 146.141 220.839 145.188L220.021 144.818C216.313 143.089 213.005 140.536 209.995 137.786L209.594 137.422C204.656 132.87 201.141 127.198 198.771 120.948L198.542 120.359C198.359 119.813 198.359 119.813 198.229 118.917C198.099 118.693 197.969 118.464 197.828 118.229C196.839 117.818 195.807 117.635 194.755 117.438C194.151 117.302 193.542 117.172 192.938 117.036L192.042 116.839C187.365 115.724 182.974 113.286 179.057 110.563L178.229 109.995C172.542 105.849 168.245 100.396 165.042 94.1771L164.667 93.4635C161.219 86.3958 160.224 78.6823 160.542 70.9167C160.677 69.2188 160.969 67.5625 161.339 65.8958L161.469 65.2813C163.13 57.8594 166.573 51.0729 171.703 45.4375C174.276 42.6927 176.948 40.1875 180.115 38.1458L180.604 37.8281C185.646 34.5885 191.359 32.2031 197.302 31.2708H198.094L198.224 30.8073C200.193 23.8802 204.401 17.9583 209.349 12.8229C214.729 7.65625 221.662 3.67187 228.896 1.82291C230.953 1.35416 233.042 1.04167 235.13 0.718748L235.646 0.614581L235.912 0.348956ZM233 18.0573L232.047 18.3229C228.323 19.4375 225.083 21.3229 222.162 23.875L221.63 24.2865C218.526 26.7812 216.109 30.474 214.63 34.1354C213.031 38.3073 212.526 42.7396 211.844 47.1302L211.13 47.1406C203.604 47.2813 196.688 47.5521 190.068 51.5313C188.672 52.4115 187.417 53.4167 186.193 54.5313L185.464 55.1875C182.115 58.349 179.656 62.3854 178.328 66.7865C176.958 71.5833 176.802 76.3958 177.99 81.25C179.266 86.1354 181.719 90.4635 185.203 94.1094C188.719 97.4635 192.807 99.7031 197.453 101.104C200.604 101.833 203.672 101.953 206.885 102.005L208.333 102.036C209.505 102.063 210.677 102.083 211.844 102.104C212.167 103.781 212.443 105.453 212.651 107.151C212.964 109.698 213.375 112.094 214.224 114.526L214.552 115.495C216.115 119.859 218.953 123.583 222.438 126.609C226.042 129.599 230.396 131.609 234.969 132.583C240.266 133.328 245.76 132.839 250.74 130.87C253.573 129.646 256.115 127.979 258.385 125.896L258.781 125.542C260.917 123.594 262.505 121.521 263.943 119.021L264.333 118.339C266.969 113.422 267.51 107.813 268.172 102.37L268.849 102.333C275.87 101.953 282.563 101.578 288.719 97.7969C290.521 96.6198 292.057 95.1771 293.557 93.651L294.229 92.9792C297.333 89.7135 299.432 85.5 300.531 81.1458C300.922 79.5052 301.172 77.8906 301.229 76.2031L301.26 75.4792C301.37 70.75 300.484 66.2917 298.271 62.0938C297.167 60.1042 295.891 58.3229 294.354 56.6458L294 56.2604C290.781 52.7188 286.797 50.1615 282.255 48.651C277.708 47.3594 273.13 47.2604 268.438 47.1302C267.906 45.4792 267.667 43.8229 267.412 42.1094C266.604 36.9479 265.333 32.4375 262.104 28.2396C261.172 27.0937 260.208 25.9896 259.182 24.9323L258.609 24.3385C255.281 21.1302 251.094 19.026 246.651 17.8594C242.313 16.8073 237.287 16.7552 233 18.0573ZM0.822959 171.089C4.45317 171.073 8.08858 171.057 11.7188 171.047C13.4063 171.042 15.0938 171.036 16.7813 171.031C18.4115 171.021 20.0469 171.016 21.6771 171.016C22.2969 171.01 22.9115 171.01 23.5313 171.005C30.1771 170.958 36.2813 171.672 42.2396 174.797C43.8542 175.74 45.3594 176.813 46.8334 177.958L47.4948 178.469C50.8698 181.276 53.5886 185.385 55.2448 189.427C57.0886 194.583 57.7865 200.229 56.8334 205.646C55.8386 210.786 53.8802 215.542 50.5157 219.594C46.9063 223.719 42.698 226.542 37.5782 228.443C36.2761 228.875 34.9532 229.203 33.6146 229.5L32.8907 229.672C29.2032 230.484 25.4063 230.333 21.6511 230.328H19.8698C18.6302 230.328 17.3959 230.328 16.1563 230.328C14.5677 230.328 12.9792 230.328 11.3907 230.328C10.1667 230.328 8.94275 230.328 7.724 230.328C7.13546 230.328 6.55212 230.328 5.96358 230.328C5.14587 230.328 4.33337 230.328 3.51567 230.328H2.77608C2.21358 230.323 1.65108 230.313 1.08337 230.292L0.822959 230.026C0.796916 229.271 0.786499 228.516 0.791707 227.76L0.786499 227.031C0.786499 226.214 0.791707 225.401 0.791707 224.589V222.844C0.791707 221.266 0.791708 219.682 0.796916 218.099C0.796916 216.448 0.796916 214.797 0.796916 213.146C0.796916 210.375 0.796915 207.599 0.802123 204.828C0.802123 201.969 0.807332 199.115 0.807332 196.255V193.073C0.81254 185.745 0.817749 178.417 0.822959 171.089ZM17.7448 187.214V213.906C18.9011 214.484 20.4584 214.219 21.7396 214.219C22.3125 214.219 22.8802 214.224 23.4532 214.229C26.9792 214.245 30.4323 213.984 33.6146 212.318C34.5834 211.604 35.4219 210.813 36.2553 209.943L36.724 209.49C38.1407 208.016 38.8438 206.12 39.3646 204.172C39.9844 201.146 39.7344 198.37 38.9011 195.406C38.1823 193.349 36.724 191.589 35.1563 190.104C33.0573 188.37 30.9688 187.797 28.323 187.214H17.7448ZM434.505 185.099C436.891 186.135 439.104 187.781 440.724 189.828C441.016 190.266 441.016 190.266 441.38 190.911C442.245 190.547 442.693 190.141 443.266 189.406C445.063 187.302 447.547 185.849 450.109 184.833C453.792 183.75 457.568 183.698 461.302 184.542C463.912 185.323 466.109 186.573 468.063 188.469C470.115 190.651 471.391 193.057 472.167 195.953C472.604 198.156 472.63 200.349 472.641 202.589L472.667 204.604C472.677 205.656 472.688 206.714 472.693 207.766C472.698 208.786 472.714 209.807 472.724 210.828L472.729 211.786L472.74 212.677L472.745 213.453C472.87 214.302 473.146 214.802 473.646 215.49C474.703 216.078 475.557 216.104 476.818 216.286V230.292C467.365 230.292 467.365 230.292 463.484 228.078C461.885 226.948 460.495 225.464 459.563 223.734C458.193 220.75 458.005 217.688 457.984 214.458L457.964 212.443C457.953 211.391 457.943 210.333 457.938 209.281C457.927 208.26 457.917 207.24 457.901 206.219V205.266C457.875 203.625 457.787 202.401 456.984 200.953C456.313 199.948 455.708 199.313 454.635 198.74C452.927 198.063 451.12 198.115 449.313 198.313C448.432 198.552 447.708 198.885 446.938 199.37L446.208 199.797C445.297 200.755 444.766 201.844 444.292 203.068C444.12 203.99 444.109 204.88 444.12 205.813L444.115 206.599C444.109 207.448 444.109 208.297 444.115 209.151C444.109 209.74 444.109 210.333 444.104 210.927C444.094 212.484 444.094 214.042 444.094 215.594C444.094 217.792 444.078 219.995 444.073 222.193C444.068 223.359 444.063 224.531 444.063 225.703L444.057 227.297L444.063 228.031L444.057 228.703V229.292C444.026 229.766 444.026 229.766 443.76 230.292H429.745C429.448 229.693 429.448 229.365 429.448 228.703C429.443 228.479 429.443 228.255 429.443 228.026L429.438 227.286V226.51C429.432 225.948 429.432 225.391 429.427 224.828C429.427 223.943 429.422 223.057 429.417 222.172C429.401 219.646 429.385 217.125 429.375 214.604C429.37 213.063 429.359 211.521 429.349 209.979C429.344 209.396 429.344 208.807 429.344 208.219C429.339 207.396 429.333 206.573 429.328 205.75V205.021C429.313 203.49 429.057 202.354 428.422 200.953C427.771 199.958 427.115 199.302 426.078 198.74C424.365 198.063 422.563 198.12 420.755 198.313C419.87 198.547 419.146 198.875 418.375 199.37L417.917 199.661C416.943 200.37 416.438 201.198 415.932 202.26C415.396 203.708 415.422 205.151 415.412 206.677L415.406 207.453C415.396 208.297 415.391 209.135 415.38 209.979L415.365 211.734C415.354 213.271 415.339 214.807 415.328 216.349C415.313 217.917 415.297 219.484 415.281 221.057C415.255 224.135 415.229 227.214 415.203 230.292C413.208 230.297 411.219 230.302 409.229 230.307C408.552 230.307 407.875 230.313 407.193 230.313C406.224 230.318 405.25 230.318 404.276 230.318L403.354 230.323H401.75L401.188 230.292L400.922 230.026C400.896 229.448 400.891 228.87 400.891 228.292V227.734C400.891 227.115 400.891 226.495 400.891 225.875V224.547C400.891 223.339 400.896 222.135 400.896 220.927C400.896 219.672 400.896 218.411 400.896 217.151C400.896 214.766 400.901 212.38 400.901 210C400.906 207.281 400.906 204.568 400.912 201.854C400.912 196.271 400.917 190.682 400.922 185.099H415.203V189.063L416.724 187.839C419.12 185.974 421.521 184.719 424.542 184.167C427.943 183.729 431.25 184 434.505 185.099ZM254.156 171.089H270.552V187.74L274.255 185.625C275.24 185.224 276.151 184.87 277.162 184.568L277.714 184.396C281.583 183.37 285.734 183.698 289.594 184.568C291.656 185.188 293.427 186.188 295.146 187.474L295.635 187.839C297.734 189.484 299.167 191.911 300.172 194.349C301 196.885 301.266 199.245 301.255 201.906V202.839C301.255 203.849 301.255 204.865 301.255 205.875L301.25 207.984C301.25 209.646 301.25 211.302 301.245 212.964C301.245 215.036 301.24 217.115 301.24 219.193C301.24 222.891 301.234 226.594 301.229 230.292H285.099C284.646 229.391 284.792 228.359 284.792 227.365L284.787 226.609C284.781 226.068 284.781 225.526 284.781 224.984C284.776 224.125 284.771 223.266 284.766 222.406C284.75 219.964 284.734 217.521 284.724 215.078C284.719 213.583 284.714 212.094 284.698 210.599C284.698 210.031 284.693 209.464 284.693 208.896C284.693 208.099 284.688 207.302 284.677 206.5L284.682 205.797C284.662 204.245 284.396 202.911 283.776 201.484C283.245 200.63 282.771 200.094 281.906 199.568C280.297 198.807 278.755 198.682 276.99 198.74C275.745 198.885 274.776 199.219 273.724 199.896C272.563 200.797 271.995 201.885 271.349 203.177C270.75 204.703 270.776 206.266 270.766 207.88L270.76 208.604C270.755 209.125 270.75 209.641 270.75 210.161C270.74 210.979 270.734 211.797 270.729 212.615C270.708 214.646 270.693 216.677 270.677 218.708C270.662 220.427 270.651 222.146 270.635 223.865C270.625 224.677 270.62 225.484 270.615 226.292L270.604 227.766L270.599 228.453C270.594 228.979 270.578 229.505 270.552 230.026L270.287 230.292C269.792 230.318 269.302 230.328 268.807 230.328H266.802C266.448 230.328 266.089 230.328 265.734 230.328C264.99 230.328 264.25 230.328 263.505 230.328C262.547 230.328 261.594 230.328 260.635 230.328C259.901 230.328 259.172 230.328 258.438 230.328C257.912 230.328 257.391 230.328 256.865 230.328H255.052L254.422 230.292L254.156 230.026C254.13 229.271 254.12 228.516 254.125 227.76V227.031C254.125 226.214 254.125 225.401 254.125 224.589V222.844C254.125 221.266 254.13 219.682 254.13 218.099C254.13 216.448 254.13 214.797 254.13 213.146C254.135 210.375 254.135 207.599 254.135 204.828C254.141 201.969 254.141 199.115 254.141 196.255V195.724L254.146 193.073C254.146 185.745 254.151 178.417 254.156 171.089ZM238.412 171.708C241.094 172.964 243.297 174.703 245.344 176.839L245.693 177.432C245.672 178.182 245.672 178.182 245.5 179.042L245.318 180C245.255 180.333 245.188 180.661 245.115 181C244.99 181.646 244.865 182.297 244.74 182.943L244.552 183.896C244.292 185.26 244.063 186.63 243.844 188.005C242.547 187.865 241.37 187.568 240.125 187.182C235.38 185.703 230.531 185.177 225.625 186.078C222.667 186.786 219.901 187.943 217.547 189.906C215.995 191.411 214.896 193.135 214.208 195.188C214.01 195.964 213.839 196.734 213.698 197.521L213.516 198.495C213.245 201.375 213.578 204.313 214.703 207C215.76 209.12 217.016 210.964 218.984 212.318C222.25 214.219 225.547 215.245 229.349 215.292C233.849 215.286 238.563 214.49 242.589 212.401C243.313 212.057 243.313 212.057 244.375 212.057C244.828 214.042 245.229 216.036 245.615 218.036L245.802 218.99C246.37 221.958 246.37 221.958 245.958 223.422C245.068 225.12 243.589 226.339 242.026 227.411C238.162 229.766 233.703 231.24 229.167 231.422C223.599 231.547 218.24 230.849 213.167 228.443L212.219 228.016C208.958 226.479 206.229 224.328 203.646 221.833L203.057 221.266C199.703 217.797 197.516 213.318 196.24 208.703C196.031 207.797 195.865 206.896 195.714 205.979L195.542 204.969C194.75 199.901 195.391 194.469 197.141 189.661C199.005 184.88 202.12 180.5 206.026 177.167C210.719 173.438 216.021 171.12 221.927 170.182L222.953 170.031L223.865 169.885C228.703 169.286 233.912 169.802 238.412 171.708ZM125.078 185.016C127.323 185.958 129.287 187.302 131.193 188.797L131.182 188.057L131.177 187.094L131.167 186.141L131.193 185.359L131.453 185.099C131.896 185.073 132.333 185.063 132.771 185.068H133.625L134.547 185.073H135.49C136.484 185.073 137.484 185.078 138.479 185.078C139.156 185.083 139.828 185.083 140.5 185.083C142.156 185.089 143.813 185.094 145.469 185.099C145.781 185.719 145.771 186.083 145.771 186.776V188.307L145.776 189.156C145.776 189.76 145.781 190.37 145.781 190.974C145.781 191.938 145.787 192.896 145.792 193.859C145.807 196.589 145.818 199.323 145.823 202.057C145.823 203.724 145.833 205.396 145.844 207.063C145.849 207.703 145.849 208.339 145.849 208.974C145.849 209.865 145.854 210.755 145.859 211.646L145.854 212.448C145.865 213.125 145.885 213.766 146 214.432C146.443 215.255 146.443 215.255 147.057 215.755C147.724 216.016 147.724 216.016 148.427 216.089C148.854 216.151 149.281 216.214 149.703 216.286L149.969 216.547C149.995 216.958 150 217.37 150 217.781L150.005 218.578L150 219.448V220.333C150 220.948 150 221.568 150 222.188C150 223.135 150 224.083 150.005 225.031C150.005 225.63 150 226.229 150 226.833L150.005 227.698L150 228.495V229.203C149.969 229.766 149.969 229.766 149.703 230.292C145.412 230.375 141.109 230.391 137.182 228.391C135.76 227.547 134.698 226.474 133.656 225.203C133.12 224.474 133.12 224.474 132.516 224.214L132.318 224.672C131.37 226.391 129.589 227.828 127.938 228.865C124.854 230.474 121.422 231.51 117.917 231.417C114.109 231.083 110.359 230.068 107.094 228.047C103.662 225.594 101.078 222.594 99.2813 218.781C98.8438 217.792 98.4792 216.781 98.1355 215.755L97.8021 214.766C96.5938 210.714 96.5782 205.917 97.3907 201.781C97.5417 201.24 97.698 200.698 97.8698 200.161L98.1355 199.26C99.349 195.474 101.443 192.198 104.313 189.453C107.099 186.943 110.146 185.302 113.802 184.484C117.521 183.734 121.474 183.682 125.078 185.016ZM116.38 199.104C114.724 200.318 113.292 201.719 112.417 203.599C111.599 205.604 111.662 207.813 111.885 209.943C112.292 211.651 113.063 213.031 114.151 214.401C115.38 215.682 116.854 216.443 118.5 217.078C120.323 217.547 122.266 217.542 124.104 217.172C126.177 216.552 127.703 215.563 129.214 214.026C130.354 212.635 130.823 210.875 131.193 209.151C131.427 207.057 131.224 205.016 130.396 203.068C129.26 201.167 127.755 199.885 125.865 198.776C124.104 197.917 122.307 197.865 120.38 197.948C118.917 198.057 117.662 198.359 116.38 199.104ZM336.833 185.516C338.599 186.427 340.177 187.516 341.688 188.797L341.677 188.057C341.677 187.74 341.672 187.422 341.672 187.094L341.662 186.141L341.688 185.359L341.953 185.099C342.391 185.073 342.828 185.063 343.266 185.063H345.974C346.63 185.063 347.287 185.063 347.943 185.063C348.953 185.063 349.964 185.063 350.974 185.063C351.609 185.063 352.25 185.063 352.885 185.063H355.406L355.969 185.099L356.229 185.359C356.26 185.734 356.266 186.104 356.266 186.479C356.271 186.719 356.271 186.958 356.271 187.208V188.016L356.276 188.859C356.281 189.469 356.281 190.078 356.287 190.682C356.287 191.646 356.292 192.609 356.297 193.568C356.313 196.307 356.328 199.042 356.339 201.776C356.344 203.448 356.354 205.12 356.365 206.792C356.37 207.427 356.37 208.068 356.37 208.703C356.37 209.594 356.38 210.49 356.385 211.38V212.182C356.396 213.25 356.417 214 356.87 214.984C357.26 215.5 357.26 215.5 357.75 215.823C358.552 216.089 359.359 216.172 360.198 216.286L360.464 216.547C360.49 216.969 360.495 217.391 360.495 217.813L360.5 218.625V220.417C360.5 221.052 360.5 221.682 360.495 222.313C360.495 223.286 360.495 224.255 360.5 225.229C360.5 225.839 360.5 226.453 360.5 227.063V227.948L360.495 228.766V229.484L360.464 230.026L360.198 230.292C355.885 230.484 351.76 230.24 347.771 228.443C346.182 227.536 344.87 226.224 343.802 224.745V224.214C343.026 224.849 342.281 225.469 341.573 226.177L340.896 226.859L340.531 227.229C338.516 229.125 335.745 230.323 333.078 230.958C329.224 231.724 325.516 231.292 321.807 230.057C318.432 228.839 315.589 226.797 313.208 224.099C310.375 220.729 308.677 216.802 307.854 212.484C307.188 208.432 307.359 204.411 308.37 200.427L308.573 199.609C309.672 195.854 311.917 192.313 314.714 189.589C317.667 187.026 320.927 185.297 324.729 184.385C328.828 183.589 332.99 183.849 336.833 185.516ZM326.88 199.104C325.276 200.255 324.063 201.516 323.162 203.271C322.292 205.344 322.203 207.177 322.38 209.411C322.766 211.37 323.51 212.948 324.807 214.464C326.167 215.865 327.583 216.578 329.458 217.151C331.51 217.609 333.412 217.516 335.422 216.911C337.365 216.177 338.714 215.151 340.052 213.578C340.953 212.333 341.458 211.198 341.688 209.677C341.87 207.458 341.901 205.297 341.016 203.214C340.104 201.635 338.859 200.396 337.458 199.255C335.297 198.13 333.313 197.875 330.885 197.958C329.412 198.052 328.162 198.359 326.88 199.104ZM93.375 184.302C93.4271 186.458 93.2709 188.542 93.0105 190.682L92.9063 191.62C92.7969 192.531 92.6928 193.438 92.5834 194.349L92.4115 195.813C92.2969 196.823 92.1771 197.833 92.0521 198.839C91.4219 199.052 91.0261 199.109 90.3646 198.995L89.6719 198.839C87.724 198.703 86.1563 198.781 84.3855 199.635C84.0261 199.885 83.6719 200.151 83.3282 200.427H82.7969C82.6198 200.776 82.4428 201.13 82.2709 201.484L81.9896 202.016C80.8282 204.635 81.0573 207.464 81.0573 210.276C81.0573 210.844 81.0521 211.411 81.0469 211.984C81.0417 213.474 81.0313 214.969 81.0313 216.458C81.0261 218.859 81.0105 221.255 81 223.651C80.9948 224.49 80.9896 225.328 80.9896 226.167L80.9844 227.693V228.401C80.9844 228.943 80.9688 229.484 80.948 230.026L80.6823 230.292C80.1823 230.318 79.6771 230.323 79.1719 230.323H78.1928L77.1303 230.318H76.0469C75.0938 230.318 74.1407 230.313 73.1875 230.313C72.2136 230.307 71.2448 230.307 70.2709 230.307C68.3646 230.302 66.4584 230.297 64.5521 230.292C64.1719 229.531 64.2553 228.87 64.2553 228.016L64.25 227.469C64.25 226.854 64.25 226.245 64.2553 225.63L64.25 224.323C64.25 223.13 64.25 221.943 64.25 220.755C64.25 219.51 64.25 218.271 64.25 217.026C64.25 214.938 64.25 212.854 64.2553 210.766C64.2553 208.354 64.2553 205.938 64.25 203.521C64.25 201.453 64.25 199.38 64.25 197.313C64.25 196.073 64.25 194.833 64.25 193.599C64.25 192.432 64.25 191.271 64.2553 190.104C64.2553 189.677 64.25 189.25 64.25 188.823C64.25 188.24 64.25 187.656 64.2553 187.073V186.083L64.2865 185.359L64.5521 185.099C64.9271 185.073 65.3021 185.063 65.6719 185.068H66.3959L67.1823 185.073H67.9792C68.8282 185.073 69.6719 185.078 70.5209 185.078C71.0886 185.083 71.6615 185.083 72.2344 185.083C73.6407 185.089 75.0469 185.094 76.4532 185.099C76.6667 185.516 76.8855 185.938 77.099 186.359C77.2188 186.594 77.3386 186.828 77.4636 187.068C77.8125 187.818 77.974 188.505 78.0365 189.328L78.4375 188.979C78.8125 188.646 79.1928 188.318 79.5678 187.99C79.9219 187.677 80.2709 187.365 80.6146 187.047C82.0782 185.703 83.7865 184.766 85.7084 184.24C87.9896 183.76 91.2292 183.229 93.375 184.302ZM394.313 184.042L395.104 184.568C394.917 186.375 394.729 188.177 394.537 189.984C394.224 193.026 393.88 196.068 393.516 199.104L391.948 198.906C390.12 198.693 388.302 198.63 386.542 199.24C385.38 199.771 384.609 200.484 383.823 201.484C382.901 202.865 382.813 204.365 382.677 205.979C382.635 206.813 382.625 207.646 382.62 208.479L382.615 209.198C382.604 209.974 382.599 210.75 382.594 211.526L382.573 213.156C382.563 214.573 382.547 215.995 382.537 217.411C382.521 218.865 382.505 220.313 382.495 221.766C382.464 224.609 382.438 227.448 382.412 230.292C380.313 230.297 378.214 230.302 376.115 230.307C375.141 230.307 374.167 230.307 373.193 230.313C372.25 230.318 371.313 230.318 370.375 230.318C370.016 230.318 369.656 230.318 369.297 230.323C368.792 230.323 368.292 230.323 367.792 230.323H366.922L366.281 230.292L366.016 230.026C365.99 229.448 365.984 228.87 365.984 228.292V227.734C365.984 227.115 365.984 226.495 365.984 225.875V224.547C365.984 223.339 365.984 222.135 365.99 220.927C365.99 219.672 365.99 218.411 365.99 217.151C365.99 214.766 365.995 212.38 365.995 210C366 207.281 366 204.568 366 201.854C366.005 196.271 366.01 190.682 366.016 185.099H378.182L379.766 188.797C380.703 188.328 381.156 187.984 381.88 187.276C383.49 185.823 385.313 184.953 387.339 184.224C389.667 183.745 391.953 183.661 394.313 184.042Z" fill="#FE3B6F"/>
</g>
<path d="M247.281 58.2342C249.391 59.3228 251.146 60.8019 252.833 62.4582L253.276 62.8957C255.479 65.2498 256.87 68.3436 257.594 71.4478C257.745 72.1717 257.813 72.8123 257.859 73.5623L257.901 74.1978C258.026 77.7551 257.057 81.0571 255.469 84.203C254.891 85.2551 254.156 86.1457 253.365 87.0415L252.849 87.703C250.932 90.0311 248.193 91.479 245.432 92.5936C242.307 93.6509 238.76 93.7186 235.505 93.2498C234.734 93.0728 234.01 92.854 233.266 92.5936L232.474 92.3176C229.287 91.1144 226.787 89.0363 224.542 86.5103C223.193 84.8384 222.354 82.979 221.63 80.9634L221.37 80.2603C220.427 77.1978 220.443 73.3801 221.12 70.2603C222.26 66.5676 224.333 63.6301 227.083 60.9582C229.792 58.6196 232.953 57.328 236.438 56.6457C240.109 56.0467 243.891 56.7603 247.281 58.2342ZM234.313 66.4842C232.521 67.7238 230.906 69.3488 229.958 71.3332C229.328 73.1509 229.307 75.104 229.563 76.9998C229.979 78.7134 230.625 80.2238 231.729 81.604C233.01 82.9217 234.537 83.8436 236.266 84.4373C238.255 84.9009 240.521 84.953 242.49 84.3644C244.38 83.604 245.964 82.4634 247.224 80.8696C248.083 79.703 248.526 78.6769 248.87 77.2603C248.943 76.5155 248.958 75.7811 248.953 75.0311L248.948 74.4321C248.912 72.5988 248.521 71.4061 247.578 69.8123C246.24 68.0415 244.599 66.7082 242.651 65.6665C240.042 64.7967 236.662 65.078 234.313 66.4842ZM168.479 211.526C170.203 211.896 171.609 212.792 172.964 213.911C174.25 215.161 175.177 216.693 175.74 218.396C176.203 220.146 176.198 221.703 175.828 223.479C175.339 225.187 174.5 226.917 173.24 228.177C171.734 229.323 170.208 230.198 168.396 230.739C165.948 231.021 163.891 230.708 161.604 229.765C160.115 228.922 158.865 227.734 157.901 226.328C156.781 224.255 156.495 222.406 156.521 220.057C156.615 218.573 156.964 217.448 157.771 216.193C159.141 214.344 160.63 212.979 162.714 211.995C164.495 211.239 166.573 211.364 168.479 211.526Z" fill="#FE3B6F"/>
</svg>
