<svg xmlns="http://www.w3.org/2000/svg" xmlns:xlink="http://www.w3.org/1999/xlink" width="500" zoomAndPan="magnify" viewBox="0 0 375 374.999991" height="500" preserveAspectRatio="xMidYMid meet" version="1.2"><g id="227e5ea621"><path style=" stroke:none;fill-rule:nonzero;fill:#000000;fill-opacity:1;" d="M 48.550781 171.933594 C 49.046875 171.933594 49.539062 171.929688 50.03125 171.929688 C 51.386719 171.921875 52.738281 171.925781 54.089844 171.929688 C 55.5625 171.933594 57.035156 171.929688 58.503906 171.925781 C 61.085938 171.921875 63.664062 171.921875 66.242188 171.925781 C 70.078125 171.929688 73.914062 171.925781 77.75 171.921875 C 84.601562 171.914062 91.449219 171.914062 98.300781 171.921875 C 104.296875 171.925781 110.292969 171.925781 116.285156 171.921875 L 122.332031 171.921875 C 137.476562 171.917969 152.617188 171.921875 167.761719 171.929688 C 181.214844 171.9375 194.667969 171.9375 208.121094 171.929688 C 225.25 171.917969 242.375 171.914062 259.5 171.921875 C 265.492188 171.925781 271.484375 171.921875 277.472656 171.917969 C 284.285156 171.914062 291.097656 171.917969 297.910156 171.925781 C 301.722656 171.929688 305.535156 171.929688 309.347656 171.921875 C 311.894531 171.921875 314.441406 171.921875 316.988281 171.929688 C 318.441406 171.933594 319.890625 171.933594 321.34375 171.929688 C 322.664062 171.921875 323.984375 171.925781 325.308594 171.933594 C 326.003906 171.933594 326.699219 171.929688 327.394531 171.925781 C 330.292969 171.949219 332.785156 172.410156 335.449219 173.582031 C 336.519531 174.234375 337.445312 174.945312 338.378906 175.78125 L 339.050781 176.335938 C 341.03125 178.113281 342.117188 180.308594 343.140625 182.738281 C 343.960938 185.578125 343.828125 189.089844 343.28125 191.984375 C 342.316406 194.921875 340.550781 197.5625 338.25 199.625 C 335.878906 201.390625 333.300781 202.640625 330.347656 203.015625 C 327.476562 203.222656 324.625 203.296875 321.746094 203.292969 L 320.3125 203.292969 C 319.007812 203.296875 317.703125 203.296875 316.398438 203.292969 C 314.976562 203.292969 313.550781 203.292969 312.128906 203.296875 C 309.636719 203.296875 307.144531 203.296875 304.65625 203.296875 C 300.949219 203.292969 297.246094 203.292969 293.539062 203.296875 C 286.921875 203.296875 280.304688 203.296875 273.6875 203.296875 C 267.894531 203.296875 262.105469 203.296875 256.3125 203.296875 L 250.46875 203.296875 C 235.835938 203.296875 221.207031 203.296875 206.574219 203.292969 C 193.578125 203.292969 180.582031 203.292969 167.585938 203.292969 C 151.429688 203.292969 135.269531 203.292969 119.101562 203.296875 L 117.941406 203.296875 C 112.152344 203.296875 106.367188 203.296875 100.578125 203.296875 C 93.996094 203.296875 87.417969 203.296875 80.835938 203.296875 C 77.152344 203.292969 73.46875 203.292969 69.789062 203.296875 C 67.328125 203.296875 64.867188 203.296875 62.40625 203.292969 C 61.003906 203.292969 59.601562 203.292969 58.203125 203.292969 C 56.6875 203.296875 55.175781 203.292969 53.664062 203.292969 L 52.359375 203.296875 C 47.121094 203.285156 42.625 203.15625 37.972656 200.582031 C 35.507812 198.925781 33.863281 196.46875 32.449219 193.898438 C 31.117188 190.847656 31.148438 187.46875 31.496094 184.203125 C 32.027344 181.46875 33.371094 179.253906 35.058594 177.066406 C 37.136719 174.761719 39.527344 173.46875 42.414062 172.4375 C 44.449219 171.878906 46.453125 171.917969 48.550781 171.933594 M 47.917969 62.527344 L 48.988281 62.523438 C 50.175781 62.523438 51.363281 62.523438 52.550781 62.527344 L 55.128906 62.523438 C 57.242188 62.519531 59.355469 62.519531 61.472656 62.519531 C 64.003906 62.523438 66.539062 62.519531 69.070312 62.515625 C 74.324219 62.511719 79.574219 62.511719 84.828125 62.511719 C 90.34375 62.511719 95.859375 62.511719 101.378906 62.507812 C 109.542969 62.503906 117.703125 62.503906 125.867188 62.503906 L 126.800781 62.503906 L 134.296875 62.507812 C 144.046875 62.507812 153.796875 62.507812 163.542969 62.5 C 175.664062 62.488281 187.785156 62.488281 199.902344 62.488281 L 200.773438 62.488281 C 205.117188 62.488281 209.457031 62.488281 213.796875 62.484375 C 218.734375 62.480469 223.671875 62.480469 228.609375 62.484375 C 231.128906 62.484375 233.644531 62.484375 236.164062 62.480469 C 238.472656 62.476562 240.777344 62.480469 243.082031 62.484375 C 243.917969 62.484375 244.75 62.484375 245.585938 62.480469 C 246.722656 62.476562 247.855469 62.480469 248.988281 62.484375 L 249.96875 62.476562 C 252.632812 62.5 255 63.09375 257.417969 64.21875 C 259.90625 65.746094 261.820312 67.164062 263.285156 69.734375 C 265.066406 73.144531 265.671875 75.859375 265.601562 79.710938 C 265.492188 82.203125 264.710938 84.144531 263.484375 86.296875 C 262.058594 88.507812 260.429688 90.183594 258.179688 91.550781 C 254.558594 93.390625 251.292969 93.804688 247.296875 93.796875 L 246.238281 93.800781 C 245.070312 93.800781 243.902344 93.800781 242.730469 93.800781 L 240.191406 93.804688 C 237.863281 93.808594 235.539062 93.808594 233.210938 93.808594 C 230.957031 93.808594 228.707031 93.8125 226.453125 93.8125 C 220.421875 93.820312 214.390625 93.820312 208.359375 93.824219 C 205.503906 93.824219 202.652344 93.824219 199.796875 93.828125 C 187.257812 93.835938 174.714844 93.839844 162.171875 93.839844 C 152.257812 93.839844 142.34375 93.84375 132.429688 93.855469 C 120.792969 93.863281 109.160156 93.867188 97.523438 93.867188 L 96.664062 93.867188 C 92.105469 93.871094 87.546875 93.871094 82.984375 93.878906 C 78.402344 93.882812 73.820312 93.886719 69.238281 93.882812 C 66.753906 93.878906 64.273438 93.882812 61.789062 93.886719 C 59.519531 93.890625 57.246094 93.890625 54.972656 93.886719 C 54.152344 93.886719 53.328125 93.886719 52.507812 93.890625 C 43.453125 93.921875 43.453125 93.921875 39.277344 91.828125 C 36.5625 90.171875 34.589844 88.316406 33.050781 85.515625 L 32.59375 84.59375 L 32.214844 83.847656 C 31.082031 81.128906 31.203125 77.960938 31.496094 75.074219 C 32.007812 72.367188 33.039062 70.222656 34.820312 68.125 C 36.746094 66.085938 38.714844 64.332031 41.382812 63.355469 C 43.613281 62.699219 45.597656 62.515625 47.917969 62.527344 M 48.308594 281.203125 L 49.042969 281.199219 C 49.855469 281.199219 50.664062 281.199219 51.476562 281.199219 L 53.238281 281.195312 C 54.851562 281.191406 56.464844 281.191406 58.078125 281.191406 C 59.820312 281.191406 61.5625 281.1875 63.300781 281.183594 C 67.109375 281.179688 70.914062 281.175781 74.71875 281.175781 C 77.097656 281.175781 79.472656 281.175781 81.851562 281.171875 C 88.4375 281.167969 95.019531 281.164062 101.605469 281.164062 L 104.160156 281.164062 L 106.726562 281.160156 L 108.015625 281.160156 C 114.890625 281.160156 121.765625 281.152344 128.640625 281.144531 C 135.707031 281.136719 142.769531 281.132812 149.832031 281.132812 C 153.796875 281.132812 157.757812 281.128906 161.722656 281.121094 C 165.097656 281.117188 168.476562 281.117188 171.851562 281.117188 C 173.570312 281.121094 175.292969 281.121094 177.015625 281.113281 C 178.59375 281.109375 180.171875 281.109375 181.75 281.113281 C 182.316406 281.113281 182.886719 281.113281 183.453125 281.109375 C 187.582031 281.089844 191.585938 281.304688 195.28125 283.308594 C 197.824219 284.988281 199.96875 286.980469 201.394531 289.695312 C 202.851562 292.980469 203.1875 295.976562 202.878906 299.558594 C 202.25 302.671875 200.890625 305.203125 198.851562 307.617188 C 196.824219 309.796875 194.269531 311.101562 191.464844 312.03125 C 188.980469 312.632812 186.394531 312.480469 183.855469 312.476562 L 182.058594 312.480469 C 180.414062 312.484375 178.773438 312.484375 177.128906 312.484375 C 175.355469 312.484375 173.585938 312.488281 171.8125 312.492188 C 168.339844 312.496094 164.867188 312.5 161.394531 312.5 C 158.574219 312.5 155.75 312.503906 152.925781 312.503906 C 144.921875 312.511719 136.914062 312.515625 128.910156 312.515625 L 126.292969 312.515625 C 119.292969 312.511719 112.292969 312.519531 105.292969 312.53125 C 98.101562 312.542969 90.910156 312.546875 83.71875 312.546875 C 79.683594 312.546875 75.648438 312.546875 71.613281 312.554688 C 68.175781 312.5625 64.738281 312.5625 61.300781 312.558594 C 59.550781 312.554688 57.796875 312.554688 56.046875 312.5625 C 54.4375 312.566406 52.832031 312.566406 51.226562 312.5625 C 50.648438 312.558594 50.070312 312.5625 49.488281 312.566406 C 46.09375 312.585938 43.046875 312.351562 39.917969 310.914062 C 37.25 309.351562 35.101562 307.589844 33.542969 304.902344 C 31.957031 301.859375 31.316406 299.230469 31.382812 295.785156 C 31.636719 292.695312 32.554688 290.089844 34.285156 287.519531 C 36.242188 285.035156 38.558594 283.445312 41.449219 282.210938 C 43.671875 281.339844 45.941406 281.203125 48.308594 281.203125 "/></g></svg>