<svg xmlns="http://www.w3.org/2000/svg" xmlns:xlink="http://www.w3.org/1999/xlink" width="500" zoomAndPan="magnify" viewBox="0 0 375 374.999991" height="500" preserveAspectRatio="xMidYMid meet" version="1.2"><g id="1b4f2b28de"><path style=" stroke:none;fill-rule:nonzero;fill:#000000;fill-opacity:1;" d="M 85.007812 24.238281 C 95.171875 28.820312 102.839844 37.589844 110.585938 45.351562 C 111.515625 46.285156 112.445312 47.214844 113.378906 48.144531 C 114.109375 48.871094 114.835938 49.601562 115.566406 50.332031 C 116.074219 50.839844 116.582031 51.34375 117.089844 51.851562 C 118.417969 53.1875 119.730469 54.519531 120.953125 55.957031 C 122.699219 57.984375 124.628906 59.835938 126.53125 61.71875 C 127.246094 62.421875 127.957031 63.128906 128.667969 63.835938 C 130.6875 65.84375 132.710938 67.851562 134.734375 69.855469 C 135.980469 71.085938 137.222656 72.320312 138.464844 73.554688 C 138.929688 74.019531 139.402344 74.484375 139.871094 74.945312 C 143.6875 78.707031 147.496094 82.6875 150.078125 87.433594 L 150.476562 88.15625 C 153.351562 93.582031 154.726562 99.511719 154.605469 105.644531 C 154.269531 112.253906 152.277344 118.296875 148.738281 123.875 C 147.886719 125.152344 146.945312 126.332031 145.9375 127.484375 C 145.351562 128.15625 144.777344 128.835938 144.214844 129.527344 C 140.449219 134.089844 136.195312 138.191406 132.003906 142.359375 C 131.167969 143.195312 130.328125 144.03125 129.488281 144.871094 C 128.671875 145.6875 127.855469 146.5 127.039062 147.316406 L 125.882812 148.472656 C 123.59375 150.753906 121.277344 152.972656 118.789062 155.035156 C 118.199219 155.535156 118.199219 155.535156 117.554688 156.371094 C 117.660156 158.191406 118.625 159.808594 119.429688 161.40625 L 119.914062 162.371094 C 126.484375 175.164062 135.246094 186.660156 144.609375 197.523438 C 145.382812 198.421875 146.152344 199.324219 146.917969 200.226562 C 149.40625 203.167969 149.40625 203.167969 152.09375 205.925781 C 152.722656 206.558594 153.300781 207.214844 153.878906 207.890625 C 155.265625 209.484375 156.730469 210.984375 158.226562 212.472656 L 159.054688 213.304688 C 159.628906 213.878906 160.207031 214.453125 160.78125 215.027344 C 161.65625 215.902344 162.53125 216.777344 163.402344 217.652344 L 165.871094 220.121094 C 167.328125 221.574219 168.835938 222.96875 170.394531 224.3125 C 171.203125 225.011719 171.992188 225.734375 172.78125 226.457031 C 174.335938 227.855469 175.929688 229.191406 177.554688 230.507812 C 178.414062 231.203125 179.261719 231.902344 180.105469 232.613281 C 183.921875 235.804688 187.855469 238.792969 191.894531 241.699219 L 192.695312 242.28125 C 199.476562 247.191406 206.484375 251.332031 213.960938 255.089844 C 214.964844 255.613281 214.964844 255.613281 215.921875 256.253906 L 216.796875 256.714844 C 217.535156 256.644531 217.535156 256.644531 218.261719 256.347656 C 219.085938 255.621094 219.851562 254.890625 220.617188 254.105469 L 221.324219 253.398438 C 221.828125 252.886719 222.332031 252.378906 222.835938 251.867188 C 223.636719 251.054688 224.441406 250.242188 225.246094 249.433594 C 226.667969 248.003906 228.085938 246.574219 229.5 245.140625 C 231.757812 242.855469 234.019531 240.574219 236.285156 238.296875 C 237.070312 237.503906 237.855469 236.710938 238.636719 235.917969 C 241.253906 233.273438 243.886719 230.800781 246.824219 228.515625 L 247.875 227.65625 C 252.429688 223.9375 257.941406 221.628906 263.671875 220.457031 L 264.457031 220.292969 C 265.175781 220.171875 265.871094 220.125 266.601562 220.09375 L 267.859375 220.035156 C 274.25 219.84375 280.351562 221.125 286.003906 224.148438 C 288.507812 225.554688 290.726562 227.125 292.808594 229.125 C 293.503906 229.789062 294.222656 230.429688 294.957031 231.054688 C 297.019531 232.855469 298.941406 234.800781 300.878906 236.738281 C 301.296875 237.15625 301.71875 237.578125 302.140625 237.996094 C 303.277344 239.128906 304.410156 240.261719 305.546875 241.398438 C 306.257812 242.109375 306.96875 242.816406 307.679688 243.527344 C 310.164062 246.011719 312.648438 248.496094 315.132812 250.980469 C 317.441406 253.285156 319.75 255.589844 322.058594 257.894531 C 324.050781 259.878906 326.039062 261.867188 328.027344 263.855469 C 329.210938 265.039062 330.394531 266.222656 331.582031 267.40625 C 332.699219 268.519531 333.8125 269.632812 334.925781 270.75 C 335.332031 271.15625 335.738281 271.5625 336.148438 271.96875 C 338.371094 274.179688 340.472656 276.433594 342.425781 278.894531 C 343.132812 279.773438 343.863281 280.628906 344.605469 281.480469 C 348.34375 286.195312 350.511719 291.847656 351.675781 297.707031 C 352.546875 303.910156 351.867188 310.183594 349.613281 316.027344 C 347.710938 320.628906 344.992188 324.789062 341.675781 328.492188 L 341.023438 329.234375 C 338.933594 331.589844 336.75 333.828125 334.515625 336.046875 C 333.886719 336.671875 333.257812 337.296875 332.628906 337.921875 C 331.296875 339.25 329.960938 340.578125 328.628906 341.902344 C 327.078125 343.445312 325.527344 344.988281 323.980469 346.53125 C 323.363281 347.144531 322.75 347.753906 322.136719 348.363281 C 320.332031 350.15625 318.566406 351.960938 316.917969 353.894531 C 313.246094 358.1875 309.070312 362.050781 304.320312 365.113281 L 303.578125 365.59375 C 294 371.695312 283.457031 374.386719 272.179688 374.957031 C 269.085938 375.066406 266.023438 374.898438 262.9375 374.632812 L 261.816406 374.539062 C 241.027344 372.730469 221.359375 366.101562 202.445312 357.535156 L 201.695312 357.195312 C 198.503906 355.746094 195.355469 354.226562 192.226562 352.648438 C 190.867188 351.964844 189.5 351.289062 188.128906 350.621094 C 182.65625 347.933594 177.339844 345.085938 172.105469 341.949219 C 171.003906 341.300781 169.898438 340.671875 168.785156 340.050781 C 162.800781 336.691406 157.113281 332.976562 151.441406 329.128906 C 149.835938 328.042969 148.222656 326.972656 146.601562 325.910156 C 143.414062 323.824219 140.371094 321.566406 137.339844 319.265625 C 135.824219 318.113281 134.289062 316.984375 132.75 315.863281 C 130.25 314.046875 127.8125 312.191406 125.476562 310.167969 C 124.105469 308.980469 122.695312 307.855469 121.261719 306.746094 C 116.148438 302.777344 111.375 298.382812 106.628906 293.984375 L 106.078125 293.476562 L 105.457031 292.898438 C 104.9375 292.421875 104.414062 291.945312 103.886719 291.476562 C 100.273438 288.226562 96.855469 284.777344 93.421875 281.335938 C 92.527344 280.441406 91.632812 279.546875 90.738281 278.652344 C 89.871094 277.785156 89 276.917969 88.136719 276.050781 L 87.171875 275.089844 C 85.390625 273.300781 83.675781 271.449219 82.03125 269.53125 C 81.5 268.941406 80.964844 268.355469 80.429688 267.769531 C 79.300781 266.519531 78.210938 265.238281 77.15625 263.921875 C 75.921875 262.398438 74.632812 260.957031 73.289062 259.527344 C 71.617188 257.746094 70.074219 255.90625 68.585938 253.96875 C 67.253906 252.242188 65.871094 250.5625 64.476562 248.886719 C 62.25 246.203125 60.132812 243.453125 58.066406 240.644531 C 57.457031 239.820312 56.847656 238.996094 56.238281 238.171875 C 54.9375 236.425781 53.652344 234.667969 52.367188 232.910156 L 51.84375 232.191406 C 44.386719 221.910156 37.480469 211.183594 31.265625 200.113281 C 30.804688 199.296875 30.34375 198.480469 29.878906 197.667969 C 15.167969 171.726562 2.265625 141.785156 0.296875 105.675781 C 0.308594 104.792969 0.324219 103.910156 0.34375 103.027344 C 0.359375 102.460938 0.371094 101.898438 0.375 101.332031 C 0.46875 93.984375 1.910156 86.613281 4.761719 79.832031 L 5.085938 79.058594 C 9.703125 68.207031 18.042969 60.265625 26.277344 52.09375 C 27.347656 51.03125 28.417969 49.96875 29.484375 48.902344 C 30.144531 48.246094 30.808594 47.589844 31.46875 46.933594 C 33.0625 45.34375 34.59375 43.734375 36.058594 42.027344 C 37.3125 40.585938 38.683594 39.25 40.035156 37.898438 C 40.554688 37.378906 41.070312 36.859375 41.585938 36.335938 C 48.140625 29.765625 55.125 25.128906 64.019531 22.535156 C 70.910156 20.84375 78.445312 21.738281 85.007812 24.238281 M 61.15625 47.242188 C 60.03125 48.183594 59 49.199219 57.96875 50.242188 L 57.085938 51.117188 C 56.132812 52.058594 55.1875 53.011719 54.242188 53.960938 C 53.578125 54.625 52.910156 55.292969 52.242188 55.957031 C 50.847656 57.347656 49.457031 58.742188 48.066406 60.140625 C 46.472656 61.742188 44.875 63.339844 43.273438 64.933594 C 41.71875 66.480469 40.167969 68.03125 38.617188 69.585938 C 37.964844 70.238281 37.308594 70.890625 36.65625 71.542969 C 32.335938 75.84375 28.136719 80.136719 25.496094 85.714844 L 25.140625 86.460938 C 21.21875 94.816406 21.058594 104.308594 21.777344 113.359375 C 24.25 139.53125 36.21875 166.0625 49.210938 188.660156 C 49.78125 189.65625 50.34375 190.65625 50.90625 191.65625 C 57.53125 203.460938 65.203125 214.769531 73.386719 225.542969 C 74.027344 226.386719 74.660156 227.238281 75.289062 228.089844 C 78.097656 231.882812 81.015625 235.585938 84.042969 239.207031 C 84.800781 240.113281 85.542969 241.03125 86.289062 241.949219 C 89.226562 245.539062 92.269531 249.039062 95.417969 252.441406 C 96.15625 253.246094 96.882812 254.058594 97.59375 254.882812 C 101.664062 259.546875 106.023438 263.894531 110.410156 268.253906 C 111.703125 269.539062 112.996094 270.828125 114.277344 272.125 L 115.472656 273.332031 L 116.058594 273.929688 C 117.359375 275.234375 118.710938 276.460938 120.105469 277.667969 C 121.339844 278.75 122.519531 279.890625 123.710938 281.019531 C 125.664062 282.867188 127.644531 284.640625 129.75 286.316406 C 130.871094 287.214844 131.957031 288.144531 133.046875 289.078125 C 135.09375 290.816406 137.1875 292.484375 139.304688 294.132812 C 140.207031 294.835938 141.101562 295.546875 141.988281 296.265625 C 144.351562 298.183594 146.730469 300.042969 149.222656 301.789062 C 150.425781 302.632812 151.617188 303.496094 152.792969 304.382812 C 156.816406 307.417969 160.972656 310.171875 165.234375 312.859375 C 166.886719 313.90625 168.515625 314.980469 170.128906 316.085938 C 173.488281 318.363281 177.027344 320.347656 180.546875 322.367188 C 181.554688 322.949219 182.5625 323.535156 183.566406 324.121094 C 188.691406 327.101562 193.9375 329.828125 199.21875 332.519531 L 200.765625 333.316406 C 202.191406 334.046875 203.632812 334.75 205.078125 335.449219 L 206.160156 335.980469 C 214.042969 339.828125 222.117188 343.046875 230.347656 346.070312 L 231.539062 346.511719 C 245.5 351.625 262.875 355.761719 277.726562 353.347656 C 284.382812 352.140625 290.242188 349.570312 295.53125 345.335938 C 299.035156 342.355469 302.09375 339.019531 305.167969 335.609375 C 307.40625 333.144531 309.710938 330.75 312.089844 328.421875 C 312.679688 327.839844 313.265625 327.257812 313.855469 326.675781 C 315.523438 325.023438 317.191406 323.375 318.863281 321.726562 C 319.898438 320.710938 320.929688 319.695312 321.957031 318.671875 C 322.34375 318.289062 322.730469 317.90625 323.121094 317.523438 C 326.292969 314.425781 329.039062 311.140625 330.445312 306.867188 C 330.992188 304.421875 330.996094 301.992188 330.433594 299.554688 C 328.476562 293.675781 323.582031 289.46875 319.320312 285.195312 L 318.015625 283.886719 C 316.605469 282.46875 315.191406 281.050781 313.777344 279.632812 L 312.308594 278.160156 C 310.007812 275.851562 307.707031 273.546875 305.40625 271.242188 C 302.757812 268.589844 300.117188 265.9375 297.476562 263.28125 C 295.425781 261.222656 293.371094 259.164062 291.316406 257.105469 C 290.09375 255.882812 288.871094 254.65625 287.652344 253.429688 C 286.503906 252.273438 285.355469 251.121094 284.203125 249.972656 C 283.78125 249.550781 283.363281 249.132812 282.945312 248.707031 C 279.964844 245.695312 276.777344 242.683594 272.597656 241.492188 C 270.066406 241.027344 267.714844 241.105469 265.273438 241.929688 C 261.878906 243.214844 259.140625 245.277344 256.628906 247.855469 L 255.792969 248.695312 C 254.886719 249.605469 253.984375 250.519531 253.085938 251.433594 C 252.453125 252.074219 251.816406 252.710938 251.183594 253.351562 C 249.515625 255.027344 247.855469 256.707031 246.195312 258.386719 C 243.539062 261.074219 240.878906 263.757812 238.214844 266.4375 C 237.289062 267.371094 236.367188 268.304688 235.445312 269.238281 C 227.5625 277.203125 227.5625 277.203125 223.023438 278.6875 C 220.285156 279.34375 217.558594 279.679688 214.78125 279.105469 C 211.652344 278.085938 208.734375 276.519531 205.808594 275.023438 L 204.90625 274.566406 C 202.871094 273.527344 200.859375 272.453125 198.851562 271.363281 L 197.949219 270.875 C 188.148438 265.542969 178.972656 258.945312 170.289062 251.953125 L 169.582031 251.386719 C 164.921875 247.644531 160.351562 243.816406 155.972656 239.746094 C 155.191406 239.03125 154.394531 238.328125 153.589844 237.636719 C 151.84375 236.113281 150.210938 234.492188 148.578125 232.855469 L 147.621094 231.902344 C 146.960938 231.238281 146.300781 230.578125 145.640625 229.914062 C 144.632812 228.90625 143.625 227.902344 142.617188 226.898438 L 140.679688 224.957031 L 139.777344 224.058594 C 138.230469 222.503906 136.734375 220.921875 135.308594 219.257812 C 134.496094 218.3125 133.644531 217.410156 132.796875 216.5 C 131.230469 214.804688 129.753906 213.0625 128.308594 211.265625 C 127.515625 210.300781 126.710938 209.351562 125.890625 208.414062 C 123.429688 205.589844 121.136719 202.660156 118.894531 199.664062 C 118.296875 198.867188 117.695312 198.074219 117.089844 197.285156 C 108.503906 185.929688 98.0625 171.785156 95.328125 157.628906 C 95.050781 154.5625 95.222656 151.96875 96.3125 149.046875 C 98.074219 145.335938 100.90625 142.410156 104.015625 139.785156 C 105.011719 138.917969 105.925781 137.980469 106.84375 137.03125 C 107.519531 136.371094 108.210938 135.757812 108.929688 135.144531 C 110.90625 133.421875 112.753906 131.574219 114.609375 129.726562 L 115.179688 129.160156 C 116.167969 128.175781 117.15625 127.191406 118.144531 126.203125 C 119.15625 125.199219 120.164062 124.195312 121.179688 123.191406 C 121.96875 122.410156 122.757812 121.625 123.542969 120.839844 C 123.914062 120.46875 124.285156 120.097656 124.660156 119.730469 C 128.1875 116.246094 131.660156 112.550781 133.144531 107.714844 C 133.648438 105.1875 133.542969 102.53125 132.726562 100.089844 C 130.351562 94.378906 125.214844 90.003906 120.910156 85.695312 L 119.660156 84.441406 C 118.542969 83.316406 117.425781 82.195312 116.304688 81.074219 L 114.199219 78.964844 C 111.996094 76.757812 109.792969 74.554688 107.589844 72.347656 C 105.058594 69.8125 102.53125 67.277344 100.003906 64.738281 C 98.039062 62.769531 96.074219 60.796875 94.105469 58.832031 C 92.933594 57.660156 91.765625 56.488281 90.597656 55.3125 C 89.5 54.210938 88.398438 53.109375 87.296875 52.007812 C 86.894531 51.609375 86.496094 51.207031 86.09375 50.804688 C 83.085938 47.765625 79.996094 44.8125 75.851562 43.453125 C 70.09375 42.238281 65.84375 43.960938 61.15625 47.242188 M 217.597656 1.761719 L 218.613281 1.980469 C 239.523438 6.507812 259.515625 14.433594 277.953125 25.269531 L 278.792969 25.761719 C 295.046875 35.40625 311.433594 48.035156 323.722656 62.511719 C 324.339844 63.214844 324.972656 63.894531 325.617188 64.574219 C 328.289062 67.386719 330.785156 70.257812 333.132812 73.34375 C 333.617188 73.972656 334.109375 74.597656 334.609375 75.214844 C 341.789062 84.179688 347.945312 93.90625 353.394531 104.003906 L 354.359375 105.761719 C 363.316406 122.265625 369.386719 140.023438 373.261719 158.363281 L 373.476562 159.378906 C 375.105469 167.109375 375.105469 167.109375 374.390625 170.257812 C 373.542969 172.261719 372.636719 173.976562 370.972656 175.414062 C 369.203125 176.597656 367.519531 177.496094 365.382812 177.6875 C 362.625 177.738281 360.5 177.199219 358.085938 175.871094 C 356.335938 174.472656 355.015625 173.039062 354.144531 170.953125 C 353.210938 168.535156 352.746094 166.019531 352.242188 163.488281 C 349.035156 147.566406 343.761719 132.46875 336.546875 117.917969 L 336.058594 116.921875 C 331.0625 106.886719 324.878906 97.367188 317.871094 88.621094 L 317.308594 87.917969 C 314.894531 84.898438 312.433594 81.945312 309.8125 79.101562 C 309.285156 78.515625 308.761719 77.925781 308.234375 77.339844 C 307.664062 76.707031 307.089844 76.074219 306.519531 75.4375 L 305.992188 74.855469 C 305.429688 74.234375 304.863281 73.609375 304.296875 72.988281 L 303.777344 72.410156 C 302.578125 71.101562 301.300781 69.9375 299.953125 68.78125 C 298.933594 67.886719 297.960938 66.949219 296.984375 66.011719 C 294.679688 63.800781 292.355469 61.664062 289.808594 59.734375 C 288.726562 58.910156 287.652344 58.078125 286.597656 57.21875 C 283.371094 54.574219 280.039062 52.171875 276.558594 49.875 L 275.773438 49.351562 C 269.316406 45.074219 262.683594 41.066406 255.683594 37.738281 C 254.761719 37.296875 253.851562 36.832031 252.941406 36.371094 C 239.601562 29.664062 225.230469 25.257812 210.621094 22.355469 C 203.101562 20.847656 203.101562 20.847656 200.570312 18.953125 C 199.050781 17.398438 198.058594 15.804688 197.273438 13.777344 C 196.847656 11.527344 196.78125 9.371094 197.363281 7.140625 C 198.183594 4.980469 199.699219 3.339844 201.414062 1.832031 C 206.480469 -1.285156 212.1875 0.601562 217.597656 1.761719 M 211.167969 69.054688 L 212.472656 69.351562 C 229.773438 73.398438 245.941406 80.636719 260.007812 91.550781 L 260.914062 92.253906 C 261.839844 92.988281 262.761719 93.730469 263.671875 94.480469 L 264.742188 95.347656 C 267.695312 97.769531 270.417969 100.417969 273.125 103.109375 L 273.667969 103.648438 C 276.121094 106.078125 278.367188 108.621094 280.515625 111.328125 C 280.875 111.757812 281.234375 112.1875 281.59375 112.613281 C 286.582031 118.613281 290.886719 125.253906 294.433594 132.203125 L 294.988281 133.28125 C 300.113281 143.308594 303.796875 153.828125 306.128906 164.839844 L 306.378906 165.972656 C 306.953125 168.835938 307.027344 171.484375 306.199219 174.308594 C 305.011719 176.632812 303.558594 178.332031 301.390625 179.808594 C 299.558594 180.746094 297.703125 181.09375 295.652344 181.011719 C 293.546875 180.753906 291.558594 180.175781 289.765625 179.03125 C 288.242188 177.800781 287.207031 176.460938 286.375 174.683594 C 285.710938 172.734375 285.257812 170.722656 284.78125 168.722656 C 281.632812 155.476562 276.847656 142.578125 268.796875 131.46875 L 267.953125 130.300781 C 262.609375 123.058594 256.523438 116.128906 249.390625 110.59375 L 248 109.488281 C 235.703125 99.796875 221.441406 93.207031 206.125 89.96875 L 205.03125 89.734375 C 204.355469 89.59375 203.683594 89.460938 203.003906 89.335938 C 200.660156 88.859375 198.867188 87.957031 197.019531 86.425781 C 195.570312 84.832031 194.667969 83.394531 194.089844 81.300781 C 193.816406 79.113281 193.808594 77.046875 194.492188 74.9375 C 195.390625 73.019531 196.386719 71.292969 198.105469 70.011719 C 202.492188 67.472656 206.402344 67.941406 211.167969 69.054688 "/></g></svg>