<svg xmlns="http://www.w3.org/2000/svg" xmlns:xlink="http://www.w3.org/1999/xlink" width="500" zoomAndPan="magnify" viewBox="0 0 375 374.999991" height="500" preserveAspectRatio="xMidYMid meet" version="1.2"><defs><clipPath id="514db3ba22"><path d="M 2.429688 23 L 351 23 L 351 372.929688 L 2.429688 372.929688 Z M 2.429688 23 "/></clipPath><clipPath id="f9e1f60fa8"><path d="M 180 2.429688 L 372.929688 2.429688 L 372.929688 195 L 180 195 Z M 180 2.429688 "/></clipPath></defs><g id="e390295300"><g clip-rule="nonzero" clip-path="url(#514db3ba22)"><path style=" stroke:none;fill-rule:nonzero;fill:#000000;fill-opacity:1;" d="M 90.261719 26.847656 C 94.683594 29.734375 98.441406 33.632812 102.15625 37.355469 L 103.589844 38.785156 C 104.875 40.0625 106.15625 41.347656 107.441406 42.628906 C 108.515625 43.707031 109.59375 44.78125 110.671875 45.855469 C 113.214844 48.398438 115.757812 50.9375 118.296875 53.480469 C 120.90625 56.09375 123.519531 58.699219 126.132812 61.304688 C 128.390625 63.558594 130.644531 65.808594 132.894531 68.0625 C 134.234375 69.402344 135.578125 70.742188 136.917969 72.082031 C 138.183594 73.339844 139.441406 74.601562 140.703125 75.863281 C 141.160156 76.324219 141.621094 76.78125 142.078125 77.238281 C 144.339844 79.488281 146.511719 81.761719 148.492188 84.261719 L 148.972656 84.867188 C 151.457031 88.085938 153 91.835938 153.722656 95.832031 C 154.304688 100.652344 153.832031 105.234375 152.1875 109.828125 C 149.234375 116.605469 143.097656 121.695312 137.949219 126.792969 C 136.925781 127.804688 135.90625 128.816406 134.886719 129.832031 L 133.828125 130.882812 L 133.296875 131.414062 C 130.929688 133.769531 128.558594 136.121094 126.1875 138.46875 C 124.574219 140.066406 122.964844 141.664062 121.359375 143.265625 C 120.511719 144.109375 119.664062 144.953125 118.8125 145.792969 C 117.867188 146.726562 116.925781 147.664062 115.984375 148.605469 L 115.140625 149.429688 C 113.375 151.207031 112.054688 152.921875 111.378906 155.359375 C 110.917969 157.460938 111.089844 159.558594 111.703125 161.605469 C 112.382812 163.257812 113.253906 164.386719 114.472656 165.683594 L 115.007812 166.253906 C 116.839844 168.203125 118.722656 170.105469 120.617188 171.996094 L 121.765625 173.148438 C 122.800781 174.191406 123.839844 175.230469 124.882812 176.273438 C 126.007812 177.398438 127.132812 178.527344 128.257812 179.65625 C 130.964844 182.371094 133.675781 185.085938 136.386719 187.796875 L 139.453125 190.867188 C 145.335938 196.761719 151.226562 202.65625 157.113281 208.550781 C 161.554688 212.992188 165.988281 217.433594 170.421875 221.882812 C 174.984375 226.453125 179.546875 231.023438 184.109375 235.589844 C 186.671875 238.148438 189.230469 240.710938 191.785156 243.277344 C 193.960938 245.460938 196.136719 247.640625 198.316406 249.816406 C 199.429688 250.925781 200.539062 252.039062 201.648438 253.152344 C 202.660156 254.171875 203.679688 255.191406 204.699219 256.207031 C 205.066406 256.570312 205.433594 256.9375 205.796875 257.308594 C 208.183594 259.722656 210.609375 261.949219 213.882812 263.042969 C 216.1875 263.222656 218.53125 263.367188 220.707031 262.476562 C 223.632812 260.867188 225.9375 258.261719 228.265625 255.910156 L 229.1875 254.984375 C 230.011719 254.15625 230.835938 253.324219 231.660156 252.492188 C 232.53125 251.617188 233.402344 250.742188 234.273438 249.871094 C 237.230469 246.898438 240.183594 243.929688 243.136719 240.953125 C 244.773438 239.304688 246.410156 237.660156 248.046875 236.019531 C 248.914062 235.152344 249.773438 234.285156 250.636719 233.414062 C 260.730469 223.21875 260.730469 223.21875 268.078125 221.179688 C 272.703125 220.160156 277.144531 220.1875 281.707031 221.488281 C 288.875 223.890625 293.925781 229.113281 299.152344 234.351562 L 300.585938 235.78125 C 301.871094 237.0625 303.15625 238.34375 304.4375 239.625 C 305.511719 240.703125 306.589844 241.777344 307.667969 242.851562 C 310.210938 245.394531 312.753906 247.933594 315.292969 250.476562 C 317.902344 253.089844 320.515625 255.695312 323.128906 258.304688 C 325.386719 260.554688 327.640625 262.804688 329.890625 265.058594 C 331.230469 266.402344 332.574219 267.738281 333.917969 269.078125 C 335.179688 270.335938 336.441406 271.597656 337.699219 272.859375 C 338.15625 273.320312 338.617188 273.777344 339.078125 274.234375 C 341.335938 276.484375 343.507812 278.761719 345.488281 281.257812 L 345.96875 281.863281 C 348.445312 285.074219 350 288.824219 350.71875 292.804688 C 351.332031 297.941406 350.804688 302.558594 348.910156 307.378906 C 346.226562 313.207031 341.269531 317.574219 336.785156 322.035156 C 336.199219 322.621094 335.613281 323.210938 335.027344 323.796875 C 333.804688 325.019531 332.578125 326.238281 331.355469 327.457031 C 329.792969 329.015625 328.230469 330.574219 326.671875 332.136719 C 325.460938 333.34375 324.25 334.554688 323.042969 335.761719 C 322.464844 336.335938 321.890625 336.910156 321.3125 337.484375 C 320.507812 338.289062 319.703125 339.09375 318.898438 339.894531 L 318.1875 340.601562 C 316.613281 342.167969 314.96875 343.640625 313.285156 345.09375 C 312.898438 345.4375 312.511719 345.78125 312.125 346.125 C 298.5625 358.078125 281.753906 366.25 264.070312 369.910156 C 261.570312 370.386719 259.058594 370.769531 256.535156 371.117188 L 255.671875 371.246094 C 240.375 373.476562 224.179688 371.476562 209.546875 366.78125 L 208.613281 366.484375 C 188.878906 360.058594 173.75 347.320312 159.328125 332.875 L 157.675781 331.222656 C 156.179688 329.730469 154.6875 328.238281 153.195312 326.742188 C 151.578125 325.125 149.957031 323.507812 148.339844 321.890625 C 145.359375 318.910156 142.378906 315.933594 139.402344 312.953125 C 136.648438 310.199219 133.898438 307.449219 131.148438 304.699219 L 128.363281 301.914062 C 121.402344 294.953125 114.445312 287.996094 107.488281 281.039062 C 101.3125 274.859375 95.136719 268.683594 88.960938 262.507812 C 81.257812 254.816406 73.566406 247.125 65.882812 239.433594 L 65.332031 238.878906 C 62.578125 236.128906 59.828125 233.378906 57.074219 230.628906 C 53.949219 227.5 50.824219 224.375 47.695312 221.246094 C 46.101562 219.652344 44.507812 218.054688 42.914062 216.460938 C 41.453125 215.003906 39.992188 213.542969 38.53125 212.082031 L 36.949219 210.496094 C 32.164062 205.722656 32.164062 205.722656 30.351562 203.574219 C 29.683594 202.785156 28.960938 202.046875 28.25 201.300781 C 24.335938 197.003906 20.960938 192.109375 17.96875 187.132812 L 17.464844 186.296875 C 7.703125 169.972656 2.90625 151.859375 2.429688 132.914062 C 2.191406 114.507812 6.820312 96.207031 15.71875 80.097656 C 16.550781 78.640625 17.425781 77.21875 18.332031 75.804688 L 19.046875 74.671875 C 25.25 65.105469 33.144531 56.964844 41.167969 48.921875 L 41.96875 48.113281 C 43.367188 46.710938 44.765625 45.308594 46.167969 43.90625 C 47.601562 42.472656 49.03125 41.03125 50.460938 39.59375 C 51.574219 38.472656 52.6875 37.355469 53.804688 36.238281 C 54.332031 35.707031 54.859375 35.179688 55.386719 34.648438 C 60.046875 29.949219 64.492188 26.101562 70.96875 24.183594 C 77.542969 22.597656 84.34375 23.589844 90.261719 26.847656 M 75.558594 46.21875 C 73.214844 48.34375 70.984375 50.582031 68.757812 52.828125 L 67.542969 54.046875 C 66.558594 55.035156 65.578125 56.019531 64.597656 57.007812 C 65.941406 59 65.941406 59 67.671875 60.644531 C 68.859375 61.609375 69.761719 62.699219 70.742188 63.875 C 71.160156 64.246094 71.582031 64.605469 72.007812 64.960938 C 73.1875 65.9375 74.101562 67.035156 75.082031 68.214844 C 75.496094 68.582031 75.917969 68.945312 76.347656 69.296875 C 77.527344 70.273438 78.4375 71.375 79.417969 72.550781 C 79.835938 72.921875 80.257812 73.28125 80.683594 73.636719 C 81.863281 74.613281 82.773438 75.710938 83.757812 76.890625 C 84.171875 77.257812 84.59375 77.617188 85.023438 77.972656 C 86.203125 78.949219 87.113281 80.046875 88.09375 81.226562 C 88.507812 81.59375 88.929688 81.957031 89.359375 82.3125 C 90.539062 83.289062 91.449219 84.386719 92.433594 85.5625 C 92.839844 85.925781 93.253906 86.277344 93.675781 86.625 C 94.789062 87.546875 95.683594 88.550781 96.601562 89.664062 C 97.183594 90.355469 97.183594 90.355469 98.214844 91.167969 C 99.261719 92.039062 100.058594 92.941406 100.921875 93.984375 C 101.453125 94.582031 102 95.074219 102.621094 95.570312 C 103.5 96.292969 104.054688 96.953125 104.722656 97.855469 L 105.445312 97.855469 L 106.167969 99.300781 L 106.890625 99.300781 L 107.613281 100.746094 L 108.335938 100.746094 L 109.058594 102.191406 L 109.78125 102.191406 L 110.503906 103.636719 L 111.226562 103.636719 L 111.949219 105.082031 L 112.671875 105.082031 L 113.398438 106.527344 L 114.121094 106.527344 L 114.121094 107.25 C 114.679688 107.804688 114.679688 107.804688 115.40625 108.382812 C 116.949219 109.6875 118.253906 111.121094 119.542969 112.671875 C 120.226562 112.558594 120.226562 112.558594 120.988281 112.3125 C 121.792969 111.621094 122.566406 110.902344 123.316406 110.152344 L 123.984375 109.492188 C 124.453125 109.027344 124.917969 108.566406 125.378906 108.101562 C 126.089844 107.394531 126.800781 106.691406 127.515625 105.992188 C 127.96875 105.542969 128.421875 105.089844 128.875 104.640625 L 129.519531 104.011719 C 130.496094 103.015625 131.101562 102.207031 131.699219 100.929688 L 131.832031 99.660156 C 130.910156 97.765625 129.789062 96.378906 128.296875 94.910156 L 127.667969 94.277344 C 126.980469 93.585938 126.285156 92.898438 125.59375 92.210938 L 124.101562 90.714844 C 122.753906 89.367188 121.40625 88.023438 120.054688 86.679688 C 118.644531 85.273438 117.234375 83.863281 115.824219 82.453125 C 113.457031 80.085938 111.085938 77.722656 108.714844 75.359375 C 105.671875 72.324219 102.628906 69.289062 99.589844 66.25 C 96.976562 63.636719 94.359375 61.027344 91.746094 58.417969 L 89.222656 55.898438 C 87.902344 54.578125 86.582031 53.261719 85.261719 51.945312 L 83.804688 50.492188 C 83.144531 49.835938 82.484375 49.175781 81.824219 48.515625 L 81.238281 47.933594 C 80.421875 47.121094 79.65625 46.445312 78.695312 45.804688 C 77.488281 45.589844 76.605469 45.503906 75.558594 46.21875 M 48.332031 73.273438 C 47.707031 73.878906 47.105469 74.503906 46.527344 75.148438 C 46.347656 75.34375 46.171875 75.539062 45.992188 75.742188 C 36.34375 86.554688 29.566406 99.902344 26.5 114.050781 C 26.296875 115.035156 26.105469 116.023438 25.921875 117.011719 L 25.742188 117.960938 C 23.203125 132.074219 24.839844 147.15625 29.648438 160.605469 C 33.605469 171.152344 39.398438 180.566406 47.113281 188.757812 C 47.625 189.320312 48.113281 189.898438 48.601562 190.476562 C 50.785156 192.972656 53.171875 195.277344 55.515625 197.617188 L 57.175781 199.277344 C 58.695312 200.796875 60.210938 202.3125 61.730469 203.832031 C 63.367188 205.46875 65.003906 207.105469 66.644531 208.746094 C 69.664062 211.769531 72.6875 214.792969 75.710938 217.8125 C 78.503906 220.605469 81.292969 223.398438 84.085938 226.1875 L 86.90625 229.007812 C 93.960938 236.0625 101.015625 243.117188 108.070312 250.171875 C 114.335938 256.441406 120.601562 262.707031 126.871094 268.96875 C 134.667969 276.78125 142.460938 284.574219 150.25 292.351562 L 150.808594 292.910156 C 153.601562 295.703125 156.390625 298.492188 159.179688 301.28125 C 162.351562 304.457031 165.523438 307.628906 168.699219 310.800781 C 170.320312 312.421875 171.9375 314.039062 173.554688 315.660156 C 175.039062 317.140625 176.519531 318.625 178.003906 320.105469 C 178.539062 320.640625 179.074219 321.175781 179.609375 321.710938 C 183.265625 325.382812 183.265625 325.382812 187.132812 328.828125 C 187.515625 329.160156 187.898438 329.496094 188.28125 329.828125 C 199.5 339.5 213.269531 345.761719 227.777344 348.539062 C 242.066406 351.148438 256.925781 349.804688 270.632812 345.09375 C 282.308594 340.84375 292.574219 334.355469 301.355469 325.574219 L 246.054688 270.269531 C 244.785156 270.90625 244.242188 271.28125 243.3125 272.269531 L 242.570312 273.039062 L 241.78125 273.863281 C 237.253906 278.472656 232.386719 282.269531 226.105469 284.105469 C 223.640625 284.777344 221.140625 285.347656 218.582031 285.453125 L 217.601562 285.496094 C 211.179688 285.640625 205.40625 283.964844 199.789062 280.964844 C 197.941406 279.929688 196.371094 278.75 194.859375 277.261719 C 194.171875 276.582031 193.476562 275.960938 192.742188 275.335938 C 190.835938 273.671875 189.058594 271.882812 187.273438 270.09375 L 186.125 268.953125 C 185.082031 267.910156 184.042969 266.871094 183 265.828125 C 181.875 264.699219 180.746094 263.574219 179.621094 262.449219 C 177.414062 260.246094 175.210938 258.042969 173.003906 255.839844 C 171.214844 254.046875 169.421875 252.257812 167.628906 250.464844 C 162.539062 245.378906 157.453125 240.292969 152.367188 235.207031 L 151.535156 234.378906 L 150.707031 233.546875 C 146.261719 229.101562 141.816406 224.660156 137.367188 220.21875 C 132.796875 215.652344 128.230469 211.085938 123.660156 206.515625 C 121.097656 203.953125 118.535156 201.390625 115.96875 198.832031 C 113.785156 196.652344 111.605469 194.46875 109.421875 192.285156 C 108.3125 191.171875 107.199219 190.0625 106.085938 188.949219 C 105.0625 187.933594 104.042969 186.910156 103.023438 185.890625 C 102.660156 185.523438 102.292969 185.15625 101.921875 184.789062 C 96.238281 179.136719 92.011719 173.351562 89.828125 165.578125 C 88.652344 160.628906 88.640625 154.917969 89.914062 149.984375 L 90.261719 148.820312 L 90.636719 147.554688 C 93.144531 139.832031 98.707031 134.464844 104.359375 128.9375 C 102.953125 127.253906 101.472656 125.636719 99.917969 124.085938 L 99.257812 123.421875 C 98.53125 122.695312 97.804688 121.96875 97.078125 121.246094 L 95.511719 119.671875 C 94.097656 118.253906 92.679688 116.839844 91.265625 115.421875 L 88.613281 112.769531 C 85.53125 109.683594 82.449219 106.597656 79.367188 103.515625 C 76.488281 100.640625 73.613281 97.761719 70.738281 94.878906 C 68.269531 92.40625 65.800781 89.9375 63.332031 87.464844 C 61.855469 85.992188 60.378906 84.515625 58.90625 83.039062 C 57.523438 81.652344 56.136719 80.265625 54.75 78.882812 C 54.242188 78.371094 53.734375 77.863281 53.226562 77.351562 C 52.53125 76.65625 51.839844 75.964844 51.144531 75.273438 L 50.53125 74.652344 C 50.050781 74.179688 49.554688 73.726562 49.054688 73.273438 Z M 272.574219 243.214844 C 270.214844 245.332031 267.984375 247.574219 265.753906 249.824219 L 264.539062 251.046875 C 263.554688 252.03125 262.574219 253.015625 261.597656 254.003906 L 262.027344 254.507812 C 263.667969 256.421875 263.667969 256.421875 264.453125 257.351562 C 265.386719 258.445312 266.300781 259.476562 267.425781 260.375 C 268.464844 261.234375 268.464844 261.234375 269.34375 262.296875 C 270.0625 263.152344 270.6875 263.785156 271.535156 264.488281 C 272.714844 265.464844 273.628906 266.5625 274.609375 267.742188 C 275.015625 268.101562 275.429688 268.457031 275.851562 268.800781 C 276.964844 269.722656 277.859375 270.726562 278.777344 271.839844 C 279.582031 272.75 280.542969 273.472656 281.476562 274.246094 L 282.355469 275.308594 C 283.074219 276.167969 283.699219 276.796875 284.546875 277.5 C 285.726562 278.476562 286.640625 279.574219 287.621094 280.753906 C 288.027344 281.113281 288.441406 281.46875 288.863281 281.816406 C 289.980469 282.738281 290.871094 283.742188 291.789062 284.855469 C 292.375 285.542969 292.375 285.542969 293.40625 286.355469 C 294.453125 287.230469 295.246094 288.128906 296.109375 289.175781 C 296.640625 289.773438 297.1875 290.261719 297.808594 290.761719 C 298.6875 291.484375 299.242188 292.140625 299.910156 293.042969 L 300.632812 293.042969 L 301.355469 294.488281 L 302.078125 294.488281 L 302.800781 295.933594 L 303.523438 295.933594 L 304.25 297.378906 L 304.972656 297.378906 L 305.332031 298.464844 C 305.855469 298.910156 306.386719 299.34375 306.921875 299.773438 C 307.648438 300.398438 308.210938 301.128906 308.808594 301.871094 C 309.355469 302.496094 309.941406 303.011719 310.574219 303.546875 C 312.8125 305.449219 314.839844 307.582031 316.898438 309.671875 C 318.429688 309.074219 319.460938 307.933594 320.597656 306.792969 L 321.242188 306.148438 C 321.691406 305.703125 322.136719 305.253906 322.585938 304.800781 C 323.269531 304.113281 323.953125 303.429688 324.644531 302.75 L 325.949219 301.4375 L 326.570312 300.820312 C 327.980469 299.457031 327.980469 299.457031 328.828125 297.742188 C 328.769531 296.6875 328.769531 296.6875 328.464844 295.574219 C 327.898438 294.710938 327.898438 294.710938 327.117188 293.933594 L 326.21875 292.984375 L 325.214844 291.957031 L 324.6875 291.417969 C 323.277344 289.972656 321.851562 288.542969 320.421875 287.113281 L 318.996094 285.683594 C 317.714844 284.398438 316.433594 283.117188 315.148438 281.835938 L 312.746094 279.429688 C 309.949219 276.628906 307.152344 273.828125 304.351562 271.03125 C 301.746094 268.421875 299.140625 265.816406 296.535156 263.203125 C 294.296875 260.960938 292.054688 258.71875 289.8125 256.476562 C 288.472656 255.136719 287.136719 253.796875 285.800781 252.457031 C 284.546875 251.203125 283.292969 249.945312 282.035156 248.691406 C 281.574219 248.230469 281.113281 247.769531 280.652344 247.308594 C 280.027344 246.679688 279.398438 246.050781 278.769531 245.425781 L 278.214844 244.867188 C 277.316406 243.976562 276.519531 243.257812 275.332031 242.800781 C 274.226562 242.574219 273.519531 242.546875 272.574219 243.214844 "/></g><g clip-rule="nonzero" clip-path="url(#f9e1f60fa8)"><path style=" stroke:none;fill-rule:nonzero;fill:#000000;fill-opacity:1;" d="M 196.554688 2.519531 L 198.320312 2.578125 C 229.289062 3.675781 260.109375 12.746094 286.457031 29.15625 C 287.949219 30.101562 289.414062 31.078125 290.875 32.066406 L 291.59375 32.546875 C 298.617188 37.238281 305.429688 42.425781 311.613281 48.183594 C 312.117188 48.648438 312.625 49.109375 313.144531 49.550781 C 315.449219 51.511719 317.570312 53.648438 319.703125 55.789062 C 320.355469 56.441406 321.007812 57.09375 321.664062 57.746094 C 323.765625 59.847656 325.824219 61.960938 327.742188 64.238281 C 328.085938 64.628906 328.429688 65.019531 328.773438 65.410156 C 331.59375 68.644531 334.21875 72.003906 336.78125 75.441406 L 337.363281 76.222656 C 342.398438 82.976562 346.824219 90.109375 350.875 97.492188 L 351.410156 98.457031 C 364.589844 122.5 371.59375 150.003906 372.425781 177.355469 C 372.441406 177.929688 372.460938 178.503906 372.484375 179.078125 C 372.738281 185.738281 372.738281 185.738281 371.476562 188.71875 C 370.113281 190.847656 368.511719 192.496094 366.304688 193.757812 C 364.304688 194.671875 362.449219 194.949219 360.257812 194.863281 C 358.179688 194.59375 356.492188 193.914062 354.773438 192.722656 C 353.082031 191.34375 351.796875 189.839844 350.875 187.859375 C 350.113281 185.226562 350.046875 182.578125 349.996094 179.859375 C 349.355469 158.316406 344.558594 137.386719 335.695312 117.734375 L 335.28125 116.800781 C 329.339844 103.484375 321.019531 91.132812 311.476562 80.140625 L 310.808594 79.363281 C 310.195312 78.652344 309.574219 77.949219 308.945312 77.25 L 308.113281 76.3125 C 306.132812 74.125 304.09375 72 302.011719 69.910156 L 301.296875 69.1875 C 299.6875 67.585938 298.015625 66.082031 296.296875 64.597656 C 295.917969 64.265625 295.539062 63.929688 295.160156 63.59375 C 274.648438 45.570312 249.246094 33.472656 222.558594 28.054688 C 213.164062 26.214844 203.683594 25.191406 194.113281 24.992188 C 191.386719 24.921875 188.660156 24.820312 186.144531 23.660156 C 184.113281 22.21875 182.484375 20.796875 181.257812 18.605469 C 180.335938 16.589844 180.042969 14.742188 180.128906 12.53125 C 180.398438 10.453125 181.078125 8.765625 182.269531 7.046875 C 183.621094 5.394531 185.15625 3.988281 187.132812 3.152344 C 190.242188 2.183594 193.34375 2.398438 196.554688 2.519531 "/></g><path style=" stroke:none;fill-rule:nonzero;fill:#000000;fill-opacity:1;" d="M 195.359375 62.453125 L 196.117188 62.480469 C 204.441406 62.804688 212.671875 64.015625 220.75 66.046875 L 221.832031 66.3125 C 237.371094 70.253906 251.726562 77.347656 264.488281 87.011719 L 265.164062 87.511719 C 268.304688 89.859375 271.167969 92.4375 273.996094 95.148438 C 274.871094 95.984375 275.769531 96.792969 276.695312 97.574219 C 277.546875 98.296875 278.320312 99.023438 279.035156 99.886719 C 279.753906 100.734375 280.476562 101.558594 281.246094 102.363281 C 284.40625 105.683594 287.09375 109.328125 289.789062 113.035156 L 290.261719 113.675781 C 301.96875 129.574219 309.417969 148.992188 311.714844 168.597656 C 313.332031 184.09375 313.332031 184.09375 311.800781 187.902344 C 310.640625 190.328125 308.933594 192.0625 306.777344 193.640625 C 305.050781 194.578125 303.328125 194.800781 301.378906 194.882812 C 299.207031 194.816406 297.457031 194.375 295.574219 193.28125 C 293.910156 192.097656 292.441406 190.808594 291.4375 189.011719 C 290.078125 185.691406 290.03125 182.0625 289.859375 178.527344 C 289.335938 169.730469 287.785156 161.191406 285.089844 152.796875 L 284.800781 151.886719 C 280.507812 138.765625 273.089844 126.613281 263.640625 116.59375 C 262.898438 115.800781 262.191406 115 261.503906 114.164062 C 260.566406 113.050781 259.515625 112.121094 258.40625 111.179688 C 257.578125 110.46875 256.789062 109.730469 255.992188 108.992188 C 251.511719 104.964844 246.503906 101.675781 241.355469 98.578125 L 240.601562 98.125 C 226.746094 89.84375 211.035156 85.925781 195.027344 85.105469 C 188.160156 84.734375 188.160156 84.734375 185.308594 83.171875 C 183.582031 81.945312 182.273438 80.378906 181.210938 78.554688 C 180.296875 76.558594 180.066406 74.699219 180.152344 72.511719 C 180.382812 70.429688 181 68.652344 182.121094 66.882812 C 183.441406 65.179688 185.160156 64.035156 187.140625 63.210938 C 189.867188 62.246094 192.5 62.324219 195.359375 62.453125 "/><path style=" stroke:none;fill-rule:nonzero;fill:#000000;fill-opacity:1;" d="M 194.023438 115.609375 L 195.058594 115.664062 C 206.839844 116.410156 218.394531 119.988281 228.292969 126.488281 C 229.789062 127.5 231.238281 128.570312 232.679688 129.664062 L 233.648438 130.386719 C 240.507812 135.730469 246.09375 142.371094 250.390625 149.902344 L 250.78125 150.578125 C 256.066406 159.738281 258.714844 170.023438 259.335938 180.539062 L 259.398438 181.484375 C 259.523438 184.039062 259.332031 186.5 258.246094 188.847656 C 256.808594 190.882812 255.386719 192.507812 253.191406 193.734375 C 251.179688 194.65625 249.332031 194.949219 247.121094 194.863281 C 245.042969 194.59375 243.355469 193.914062 241.636719 192.722656 C 239.984375 191.371094 238.578125 189.835938 237.738281 187.859375 C 237.046875 185.476562 236.863281 183.09375 236.699219 180.628906 C 236.058594 172.582031 233.738281 165.152344 229.230469 158.398438 C 228.054688 156.699219 226.785156 155.089844 225.449219 153.519531 L 224.972656 152.90625 C 221.121094 148.007812 214.714844 144.03125 209.042969 141.671875 C 203.871094 139.613281 198.871094 138.59375 193.316406 138.222656 C 187.761719 137.84375 187.761719 137.84375 185.644531 136.484375 C 183.78125 135.210938 182.355469 133.675781 181.234375 131.71875 C 180.320312 129.71875 180.042969 127.859375 180.128906 125.667969 C 180.398438 123.589844 181.078125 121.902344 182.269531 120.183594 C 183.621094 118.53125 185.15625 117.125 187.132812 116.289062 C 189.457031 115.582031 191.617188 115.476562 194.023438 115.609375 "/></g></svg>