<svg xmlns="http://www.w3.org/2000/svg" xmlns:xlink="http://www.w3.org/1999/xlink" width="500" zoomAndPan="magnify" viewBox="0 0 375 374.999991" height="500" preserveAspectRatio="xMidYMid meet" version="1.2"><g id="24a6874844"><path style=" stroke:none;fill-rule:nonzero;fill:#010101;fill-opacity:1;" d="M 224.792969 3.136719 C 226.894531 4.40625 228.714844 5.863281 230.5 7.542969 C 231.253906 8.242188 232.023438 8.929688 232.808594 9.601562 C 234.246094 10.859375 235.617188 12.171875 236.964844 13.527344 L 237.703125 14.261719 C 238.511719 15.066406 239.316406 15.871094 240.125 16.675781 L 241.867188 18.414062 C 243.445312 19.988281 245.019531 21.558594 246.59375 23.132812 L 249.550781 26.082031 C 252.285156 28.816406 255.019531 31.546875 257.753906 34.28125 L 258.285156 34.808594 L 260.410156 36.933594 C 263.257812 39.777344 266.101562 42.617188 268.953125 45.460938 C 271.886719 48.382812 274.816406 51.3125 277.75 54.242188 C 279.390625 55.882812 281.03125 57.523438 282.675781 59.160156 C 284.222656 60.703125 285.769531 62.246094 287.3125 63.792969 C 287.878906 64.359375 288.441406 64.921875 289.007812 65.484375 C 295.027344 71.464844 300.308594 77.621094 302.925781 85.855469 C 304.558594 91.964844 304.75 98.285156 303.234375 104.4375 C 301.820312 109.585938 299.4375 114.285156 295.898438 118.285156 L 295.246094 119.039062 C 292.480469 122.167969 289.511719 125.097656 286.5625 128.054688 L 284.734375 129.890625 C 282.746094 131.886719 280.753906 133.882812 278.761719 135.875 L 277.214844 137.425781 C 273.4375 141.210938 269.660156 144.996094 265.878906 148.777344 L 265.324219 149.335938 C 262.339844 152.320312 259.363281 155.308594 256.386719 158.296875 C 253.320312 161.378906 250.25 164.453125 247.175781 167.527344 C 245.453125 169.25 243.734375 170.972656 242.019531 172.699219 C 240.402344 174.320312 238.785156 175.941406 237.164062 177.558594 C 236.570312 178.152344 235.980469 178.742188 235.394531 179.335938 C 230.585938 184.183594 225.808594 188.449219 219.242188 190.722656 C 216.394531 191.492188 213.277344 191.480469 210.398438 190.910156 C 207.09375 189.984375 204.613281 188.484375 202.101562 186.171875 C 199.597656 183.542969 197.902344 180.328125 196.964844 176.828125 C 195.621094 170.703125 195.832031 164.34375 195.878906 158.113281 C 195.882812 157.226562 195.882812 156.34375 195.886719 155.460938 C 195.894531 153.320312 195.90625 151.183594 195.921875 149.046875 C 167.4375 145.117188 139.046875 146.753906 112.058594 157.46875 C 109.222656 158.628906 106.425781 159.867188 103.636719 161.132812 L 102.730469 161.539062 C 91.324219 166.660156 80.675781 173.550781 71 181.457031 L 70.246094 182.070312 C 68.566406 183.441406 66.929688 184.863281 65.335938 186.328125 C 64.84375 186.78125 64.34375 187.222656 63.839844 187.660156 C 61.820312 189.390625 59.921875 191.230469 58.042969 193.113281 C 57.519531 193.628906 57 194.144531 56.476562 194.660156 C 54.210938 196.921875 52.164062 199.28125 50.171875 201.78125 C 49.515625 202.566406 48.847656 203.339844 48.179688 204.117188 C 46.96875 205.523438 45.8125 206.972656 44.707031 208.460938 C 42.855469 210.953125 41.039062 212.890625 38.175781 214.1875 C 36.226562 214.828125 34.253906 214.832031 32.226562 214.597656 C 30.117188 214.070312 28.167969 213.15625 26.589844 211.640625 C 25.273438 210.070312 24.417969 208.5 23.804688 206.542969 C 21.523438 190.996094 29.625 170.882812 35.164062 156.710938 C 36.332031 153.773438 37.617188 150.890625 38.933594 148.019531 L 39.289062 147.242188 C 43.703125 137.652344 48.984375 128.519531 55.054688 119.882812 C 55.59375 119.121094 56.125 118.351562 56.65625 117.582031 C 60.148438 112.5625 64.140625 107.914062 68.113281 103.269531 L 68.832031 102.429688 C 70.160156 100.882812 71.558594 99.4375 73.023438 98.019531 C 73.640625 97.441406 73.640625 97.441406 73.972656 96.679688 L 74.707031 96.679688 L 75.003906 96.023438 C 75.449219 95.195312 75.910156 94.648438 76.570312 93.984375 L 77.253906 93.300781 L 77.980469 92.582031 L 78.730469 91.839844 C 80.40625 90.195312 82.164062 88.644531 84.011719 87.195312 C 85.015625 86.382812 85.960938 85.523438 86.90625 84.640625 C 90.957031 80.925781 95.425781 77.742188 99.894531 74.558594 C 100.648438 74.015625 101.394531 73.46875 102.136719 72.914062 C 108.816406 68 116.222656 63.847656 123.628906 60.136719 C 124.242188 59.828125 124.851562 59.515625 125.464844 59.203125 C 147.09375 48.117188 171.671875 41.804688 195.921875 40.648438 C 195.902344 38.390625 195.890625 36.132812 195.882812 33.875 C 195.878906 33.109375 195.875 32.34375 195.867188 31.582031 C 195.835938 27.570312 195.871094 23.585938 196.242188 19.589844 L 196.324219 18.660156 C 196.730469 14.765625 197.925781 11.078125 200.082031 7.789062 C 202.304688 4.722656 204.578125 2.765625 208.007812 1.097656 C 209.359375 0.59375 209.359375 0.59375 210.570312 0.367188 L 211.265625 0.21875 C 216.03125 -0.574219 220.65625 0.851562 224.792969 3.136719 M 217.894531 26 L 217.890625 26.992188 C 217.867188 30.082031 217.839844 33.175781 217.808594 36.269531 C 217.792969 37.859375 217.777344 39.445312 217.769531 41.035156 C 217.757812 42.574219 217.746094 44.109375 217.726562 45.644531 C 217.71875 46.230469 217.714844 46.8125 217.714844 47.394531 C 217.699219 50.808594 217.648438 54.039062 216.046875 57.140625 C 215.070312 58.792969 213.640625 59.707031 212.03125 60.695312 C 208.71875 62.09375 205.125 62.039062 201.585938 62.171875 C 173.1875 63.289062 145.359375 71.289062 121.214844 86.425781 C 112.300781 92.082031 104.011719 98.40625 96.28125 105.589844 C 95.46875 106.332031 94.640625 107.0625 93.800781 107.777344 C 92.234375 109.148438 90.8125 110.625 89.402344 112.152344 L 88.628906 112.980469 C 87.894531 113.769531 87.160156 114.5625 86.425781 115.355469 L 85.855469 115.96875 C 79.75 122.539062 74.410156 129.78125 69.582031 137.328125 L 69.089844 138.089844 C 63.800781 146.347656 59.050781 155.203125 55.664062 164.429688 L 55.664062 165.160156 C 57.070312 164.550781 58.191406 163.625 59.371094 162.667969 C 82.9375 143.929688 111.617188 131.609375 141.355469 127.074219 C 148.441406 126.050781 155.566406 125.199219 162.730469 125.167969 L 163.988281 125.160156 C 178.691406 125.089844 192.988281 125.96875 207.351562 129.289062 L 208.125 129.464844 C 210.515625 130.035156 212.683594 130.78125 214.535156 132.433594 C 215.789062 133.792969 216.554688 135.207031 217.164062 136.960938 C 217.496094 138.597656 217.585938 140.164062 217.605469 141.828125 L 217.617188 142.609375 C 217.625 143.453125 217.636719 144.296875 217.644531 145.144531 L 217.667969 146.90625 C 217.6875 148.449219 217.707031 149.992188 217.722656 151.535156 C 217.742188 153.109375 217.761719 154.6875 217.78125 156.261719 C 217.824219 159.351562 217.859375 162.4375 217.894531 165.527344 C 219.675781 164.042969 221.351562 162.492188 222.992188 160.851562 L 223.722656 160.125 C 224.523438 159.324219 225.328125 158.527344 226.128906 157.726562 L 227.859375 156 C 229.75 154.117188 231.640625 152.230469 233.53125 150.347656 L 235.484375 148.394531 C 238.898438 144.988281 242.3125 141.582031 245.722656 138.175781 L 246.25 137.648438 C 249.074219 134.828125 251.902344 132.007812 254.730469 129.191406 C 257.640625 126.292969 260.550781 123.390625 263.453125 120.488281 C 265.082031 118.859375 266.714844 117.234375 268.347656 115.609375 C 269.882812 114.082031 271.414062 112.550781 272.945312 111.015625 C 273.503906 110.457031 274.066406 109.898438 274.628906 109.339844 C 277.691406 106.304688 280.441406 103.535156 282.121094 99.496094 C 282.601562 96.648438 282.660156 93.960938 281.707031 91.210938 C 280.652344 88.496094 278.957031 86.589844 276.921875 84.574219 L 276.164062 83.808594 C 275.324219 82.96875 274.484375 82.132812 273.644531 81.292969 L 271.839844 79.484375 C 270.203125 77.851562 268.570312 76.21875 266.933594 74.585938 C 265.394531 73.050781 263.859375 71.515625 262.324219 69.980469 C 259.285156 66.941406 256.242188 63.902344 253.199219 60.863281 C 250.246094 57.914062 247.289062 54.960938 244.339844 52.007812 L 243.785156 51.457031 L 243.234375 50.90625 C 240.046875 47.714844 236.855469 44.527344 233.664062 41.339844 C 232.300781 39.980469 230.941406 38.621094 229.582031 37.261719 C 227.984375 35.660156 226.382812 34.0625 224.785156 32.46875 L 223.019531 30.703125 C 222.21875 29.90625 221.417969 29.105469 220.617188 28.308594 L 219.902344 27.589844 C 219.363281 27.054688 218.8125 26.523438 218.261719 26 Z M 217.894531 26 "/><path style=" stroke:none;fill-rule:nonzero;fill:#010101;fill-opacity:1;" d="M 342.925781 160.597656 C 345.214844 161.292969 347.03125 162.359375 348.679688 164.109375 C 349.933594 165.667969 350.6875 167.253906 351.195312 169.1875 C 351.527344 172.890625 350.890625 176.519531 350.257812 180.152344 L 350.109375 181.019531 C 348.488281 190.460938 346.1875 199.652344 343.140625 208.738281 L 342.707031 210.042969 C 338.71875 221.847656 333.351562 233.167969 327.027344 243.894531 L 326.46875 244.847656 C 324.214844 248.703125 321.742188 252.371094 319.125 255.988281 C 318.628906 256.679688 318.140625 257.375 317.652344 258.074219 C 315.847656 260.667969 313.925781 263.105469 311.859375 265.5 C 311.042969 266.453125 310.246094 267.421875 309.472656 268.410156 C 306.132812 272.601562 302.585938 276.515625 298.785156 280.289062 C 298.070312 281.003906 297.359375 281.714844 296.648438 282.433594 C 294.332031 284.75 292.007812 286.964844 289.429688 288.988281 C 288.539062 289.699219 287.710938 290.453125 286.878906 291.230469 C 282.308594 295.382812 277.136719 298.933594 272.09375 302.488281 L 271.441406 302.953125 C 247.027344 320.171875 217.625 330.265625 188.09375 333.753906 L 187.300781 333.851562 C 186.546875 333.9375 185.796875 334.023438 185.042969 334.105469 L 183.746094 334.25 C 182.0625 334.371094 180.394531 334.371094 178.710938 334.351562 L 178.714844 335.066406 C 178.730469 337.542969 178.742188 340.019531 178.75 342.496094 C 178.753906 343.417969 178.757812 344.339844 178.765625 345.261719 C 178.859375 359.355469 178.859375 359.355469 175.574219 366.050781 C 173.992188 368.792969 171.851562 371 169.242188 372.785156 C 166.441406 374.34375 163.589844 374.898438 160.398438 375 C 156.136719 374.8125 152.535156 373.476562 148.886719 371.316406 C 147.394531 370.308594 146.046875 369.199219 144.730469 367.96875 L 144.113281 367.394531 C 141.304688 364.765625 138.589844 362.039062 135.863281 359.316406 L 134.03125 357.492188 C 132.042969 355.511719 130.054688 353.527344 128.066406 351.542969 L 126.003906 349.484375 C 122.214844 345.703125 118.425781 341.917969 114.640625 338.136719 C 111.664062 335.167969 108.6875 332.199219 105.707031 329.230469 C 102.636719 326.171875 99.566406 323.105469 96.5 320.042969 C 94.785156 318.324219 93.066406 316.613281 91.34375 314.898438 C 89.726562 313.289062 88.113281 311.675781 86.5 310.058594 C 85.910156 309.472656 85.320312 308.882812 84.730469 308.296875 C 80.527344 304.132812 76.21875 299.753906 73.816406 294.25 L 73.464844 293.476562 C 70.894531 287.609375 70.164062 281.308594 70.753906 274.960938 C 71.496094 269.066406 73.742188 263.394531 77.292969 258.632812 C 81.085938 253.890625 85.414062 249.613281 89.703125 245.328125 L 91.4375 243.589844 C 92.996094 242.027344 94.558594 240.464844 96.117188 238.902344 C 97.09375 237.925781 98.070312 236.949219 99.046875 235.972656 C 102.285156 232.730469 105.523438 229.488281 108.765625 226.25 L 109.820312 225.195312 C 112.640625 222.371094 115.464844 219.546875 118.285156 216.71875 C 121.191406 213.808594 124.101562 210.894531 127.011719 207.988281 C 128.640625 206.355469 130.269531 204.726562 131.898438 203.097656 C 133.429688 201.5625 134.960938 200.03125 136.492188 198.5 C 137.054688 197.941406 137.613281 197.378906 138.171875 196.820312 C 143.453125 191.515625 148.683594 186.480469 156.003906 184.203125 C 159.011719 183.578125 162.300781 183.449219 165.277344 184.273438 C 168.523438 185.417969 171.226562 187.179688 173.582031 189.695312 C 176.347656 193.15625 177.699219 197.222656 178.363281 201.554688 C 178.738281 204.238281 178.804688 206.863281 178.78125 209.574219 L 178.78125 211.003906 C 178.777344 212.242188 178.769531 213.476562 178.761719 214.714844 C 178.753906 215.984375 178.75 217.253906 178.746094 218.523438 C 178.738281 221 178.726562 223.476562 178.710938 225.953125 L 179.5 226.046875 L 184.316406 226.625 C 186.378906 226.871094 188.445312 227.121094 190.507812 227.375 C 215.964844 230.429688 242.53125 226.035156 266.09375 216.164062 C 268.355469 215.191406 270.597656 214.175781 272.828125 213.136719 L 273.773438 212.695312 C 281.511719 209.074219 289.003906 204.625 295.898438 199.585938 L 296.613281 199.066406 C 301.75 195.316406 306.707031 191.363281 311.34375 187.003906 C 312.1875 186.210938 313.054688 185.4375 313.933594 184.683594 C 316.292969 182.636719 318.453125 180.402344 320.484375 178.03125 C 321.273438 177.125 322.089844 176.25 322.90625 175.371094 C 325.320312 172.722656 327.484375 169.886719 329.660156 167.039062 C 331.621094 164.519531 333.539062 162.300781 336.503906 160.972656 C 338.679688 160.199219 340.671875 160.09375 342.925781 160.597656 M 318.96875 209.472656 L 317.90625 210.359375 C 314.351562 213.300781 310.695312 216.023438 306.882812 218.628906 L 306.195312 219.105469 C 280.9375 236.484375 251.945312 246.308594 221.558594 249.390625 L 220.40625 249.507812 C 202.769531 251.03125 184.5 249.691406 167.257812 245.707031 L 166.480469 245.53125 C 164.082031 244.957031 162.226562 244.164062 160.40625 242.5 C 158.917969 240.925781 157.976562 239.410156 157.472656 237.304688 C 157.03125 234.140625 157.027344 230.945312 156.988281 227.757812 L 156.964844 226.195312 C 156.945312 224.84375 156.925781 223.488281 156.910156 222.136719 C 156.890625 220.746094 156.871094 219.359375 156.851562 217.972656 C 156.8125 215.261719 156.773438 212.550781 156.738281 209.839844 C 155.644531 210.109375 155.644531 210.109375 155.058594 210.792969 L 154.445312 211.535156 C 153.214844 212.984375 151.921875 214.335938 150.570312 215.675781 L 149.847656 216.398438 C 149.054688 217.183594 148.261719 217.972656 147.46875 218.761719 C 146.898438 219.328125 146.328125 219.898438 145.757812 220.464844 C 144.53125 221.6875 143.304688 222.90625 142.078125 224.128906 C 140.136719 226.058594 138.199219 227.988281 136.261719 229.921875 L 134.265625 231.910156 L 133.257812 232.914062 C 131.539062 234.628906 129.824219 236.339844 128.105469 238.050781 L 127.582031 238.570312 C 124.792969 241.355469 121.996094 244.136719 119.203125 246.917969 C 116.324219 249.777344 113.453125 252.640625 110.582031 255.507812 C 108.972656 257.113281 107.359375 258.71875 105.746094 260.320312 C 104.230469 261.824219 102.714844 263.335938 101.203125 264.847656 C 100.648438 265.402344 100.09375 265.953125 99.539062 266.503906 C 98.777344 267.257812 98.019531 268.015625 97.261719 268.773438 L 96.597656 269.425781 C 94.84375 271.203125 93.484375 273.183594 92.726562 275.582031 C 92.125 277.964844 92.207031 280.308594 92.652344 282.714844 C 94.152344 287.824219 98.800781 291.53125 102.445312 295.160156 L 104.207031 296.925781 C 105.796875 298.515625 107.390625 300.105469 108.980469 301.695312 C 110.648438 303.359375 112.3125 305.023438 113.976562 306.6875 C 116.769531 309.476562 119.5625 312.269531 122.355469 315.058594 C 125.410156 318.109375 128.464844 321.160156 131.519531 324.214844 L 132.054688 324.75 C 135.164062 327.859375 138.273438 330.96875 141.382812 334.074219 C 142.707031 335.398438 144.03125 336.722656 145.355469 338.042969 C 146.914062 339.601562 148.46875 341.15625 150.027344 342.707031 C 150.597656 343.28125 151.171875 343.851562 151.742188 344.425781 C 152.523438 345.203125 153.300781 345.980469 154.078125 346.753906 L 154.773438 347.453125 C 155.300781 347.972656 155.832031 348.488281 156.371094 349 L 156.738281 349 L 156.746094 348.097656 C 156.777344 345.273438 156.808594 342.453125 156.84375 339.628906 C 156.863281 338.179688 156.878906 336.726562 156.894531 335.277344 C 156.90625 333.875 156.921875 332.472656 156.941406 331.066406 C 156.949219 330.535156 156.953125 330.003906 156.960938 329.472656 C 157.03125 320.980469 157.03125 320.980469 158.816406 317.800781 C 159.925781 316.28125 161.292969 315.089844 162.945312 314.183594 C 165.933594 312.933594 169.351562 313.074219 172.539062 312.929688 C 200.511719 311.675781 228.515625 304.433594 252.367188 289.371094 C 254.445312 288.035156 256.5 286.664062 258.542969 285.277344 L 259.300781 284.769531 C 270.621094 277.132812 282.386719 267.683594 290.816406 256.847656 C 291.511719 255.972656 292.25 255.167969 293.015625 254.355469 C 300.222656 246.4375 306.144531 236.910156 311.203125 227.507812 C 311.644531 226.6875 312.09375 225.875 312.546875 225.058594 C 314.414062 221.644531 316.042969 218.15625 317.574219 214.578125 L 318.121094 213.300781 L 318.621094 212.113281 L 319.066406 211.050781 L 319.335938 210.203125 Z M 318.96875 209.472656 "/></g></svg>