<svg xmlns="http://www.w3.org/2000/svg" xmlns:xlink="http://www.w3.org/1999/xlink" width="500" zoomAndPan="magnify" viewBox="0 0 375 374.999991" height="500" preserveAspectRatio="xMidYMid meet" version="1.2"><g id="16236e46fc"><path style=" stroke:none;fill-rule:nonzero;fill:#e80e0e;fill-opacity:1;" d="M 181.246094 61.332031 C 185.847656 61.339844 190.449219 61.335938 195.050781 61.328125 C 214.589844 61.296875 234.105469 61.519531 253.636719 62.203125 L 256.269531 62.292969 C 320.109375 64.5625 320.109375 64.5625 336.457031 73.378906 C 343.328125 77.707031 348.433594 83.382812 352.480469 90.402344 C 357.640625 100.957031 359 112.972656 360.351562 124.511719 L 360.691406 127.386719 C 364.902344 164.855469 364.621094 204.984375 360.351562 242.429688 L 360.179688 243.957031 C 356.988281 271.964844 356.988281 271.964844 348.683594 284.035156 C 343.667969 290.667969 337.386719 295.3125 329.816406 298.691406 C 312.355469 304.675781 292.195312 304.457031 273.925781 305.417969 L 271.75 305.539062 C 215.652344 308.550781 158.625 308.640625 102.539062 305.417969 L 100.355469 305.296875 C 50.609375 302.449219 50.609375 302.449219 37.355469 294.433594 C 30.621094 289.835938 25.714844 284.203125 21.613281 277.179688 C 3.078125 238.386719 10.21875 176.308594 13.410156 134.710938 C 16.285156 99.277344 16.285156 99.277344 24.171875 87.09375 C 29.773438 79.222656 35.898438 74.078125 44.625 70.082031 C 48.9375 68.230469 53.222656 67.265625 57.863281 66.648438 L 59.871094 66.378906 C 99.949219 61.164062 140.894531 61.257812 181.246094 61.332031 M 152.34375 131.835938 L 152.34375 236.570312 C 155.480469 235.527344 157.609375 234.730469 160.34375 233.109375 L 162.40625 231.890625 L 164.613281 230.574219 L 169.367188 227.769531 L 171.84375 226.308594 C 175.796875 223.984375 179.769531 221.695312 183.746094 219.40625 L 188.550781 216.636719 L 190.960938 215.25 C 193.332031 213.882812 195.703125 212.511719 198.074219 211.144531 C 204.632812 207.355469 211.191406 203.566406 217.773438 199.816406 L 219.128906 199.042969 L 221.828125 197.507812 L 223.160156 196.746094 L 224.476562 195.996094 C 231.003906 192.273438 237.488281 188.492188 243.894531 184.570312 C 242.070312 182.523438 240.050781 181.324219 237.667969 179.980469 L 235.183594 178.570312 L 233.859375 177.828125 C 232.003906 176.785156 230.152344 175.734375 228.300781 174.683594 L 225.425781 173.054688 C 220.796875 170.429688 216.183594 167.785156 211.578125 165.117188 L 206.859375 162.390625 L 204.503906 161.03125 C 200.546875 158.742188 196.585938 156.457031 192.625 154.175781 C 186.921875 150.882812 181.21875 147.589844 175.515625 144.296875 C 173.113281 142.914062 170.710938 141.527344 168.308594 140.144531 C 165.75 138.671875 163.191406 137.191406 160.640625 135.703125 L 157.835938 134.078125 L 155.523438 132.730469 C 153.914062 131.722656 153.914062 131.722656 152.34375 131.835938 "/></g></svg>